<svg xmlns="http://www.w3.org/2000/svg" xmlns:xlink="http://www.w3.org/1999/xlink" viewBox="0 0 271.41 56"><defs><style>.cls-1{fill:url(#名称未設定グラデーション_139);}.cls-2{fill:#fff;}</style><linearGradient id="名称未設定グラデーション_139" x1="135.71" y1="56" x2="135.71" gradientUnits="userSpaceOnUse"><stop offset="0" stop-color="#e50012"/><stop offset="0.5" stop-color="#af0012"/><stop offset="0.5" stop-color="#e00012"/><stop offset="1" stop-color="#e50012"/></linearGradient></defs><g id="Layer_2" data-name="Layer 2"><g id="レイヤー_1" data-name="レイヤー 1"><rect class="cls-1" width="271.41" height="56" rx="28"/><path class="cls-2" d="M63.15,36.23a.78.78,0,0,1-.57-.23.75.75,0,0,1-.24-.58V30a19.72,19.72,0,0,1-2.85,2.86,28.37,28.37,0,0,1-3.3,2.38,1,1,0,0,1-.66.13A.73.73,0,0,1,55,35a.79.79,0,0,1-.1-.61.86.86,0,0,1,.43-.5,19.33,19.33,0,0,0,2.24-1.42,25.66,25.66,0,0,0,2.14-1.73,18.66,18.66,0,0,0,1.77-1.82H55.88a.73.73,0,0,1-.53-.22.7.7,0,0,1-.23-.52.79.79,0,0,1,.76-.76h3.73a.67.67,0,0,1-.44-.36c-.08-.16-.21-.39-.38-.67s-.36-.57-.54-.87l-.48-.74a.67.67,0,0,1-.1-.57.72.72,0,0,1,.35-.46.9.9,0,0,1,.63-.12.74.74,0,0,1,.52.34c.12.17.28.4.47.69l.57.87a7.42,7.42,0,0,1,.42.71.78.78,0,0,1-.3,1.11.75.75,0,0,1-.18.07h2.19V23.3H56.67a.72.72,0,0,1-.52-.21.75.75,0,0,1-.22-.53.77.77,0,0,1,.22-.53.69.69,0,0,1,.52-.22h5.67V20.37a.79.79,0,0,1,.81-.81.77.77,0,0,1,.81.81v1.44h5.67a.67.67,0,0,1,.52.22.73.73,0,0,1,.22.53.71.71,0,0,1-.22.53.7.7,0,0,1-.52.21H64v4.12h1.86a.7.7,0,0,1-.38-.46.64.64,0,0,1,.09-.57c.14-.19.31-.44.5-.75l.57-.92c.18-.32.33-.56.44-.72a.76.76,0,0,1,.48-.4.89.89,0,0,1,.62.05.74.74,0,0,1,.4.45.7.7,0,0,1-.06.6c-.11.19-.26.44-.45.74l-.58.92c-.2.31-.37.56-.52.77a.8.8,0,0,1-.38.3h3.86a.74.74,0,0,1,.53.23.73.73,0,0,1,.22.53.69.69,0,0,1-.22.52.73.73,0,0,1-.53.22H64.84a18.72,18.72,0,0,0,1.79,1.76,23.31,23.31,0,0,0,2.13,1.66A25.65,25.65,0,0,0,71,33.69a.85.85,0,0,1,.44.51.77.77,0,0,1-.09.66.8.8,0,0,1-.58.4,1.14,1.14,0,0,1-.74-.13,23.86,23.86,0,0,1-2.13-1.42,21.86,21.86,0,0,1-2.1-1.77A16.6,16.6,0,0,1,64,30v5.46a.78.78,0,0,1-.23.58A.82.82,0,0,1,63.15,36.23Z"/><path class="cls-2" d="M74.89,35.72a.69.69,0,0,1-.42-.46.75.75,0,0,1,.08-.6,11,11,0,0,0,1.27-3.48,24.12,24.12,0,0,0,.38-4.67v-1a5.22,5.22,0,0,1,.36-2.14,2.15,2.15,0,0,1,1.21-1.12,6.15,6.15,0,0,1,2.28-.34h2.56V20.33a.76.76,0,0,1,.26-.6.9.9,0,0,1,.6-.23.91.91,0,0,1,.62.23.74.74,0,0,1,.27.6v1.59h6a.65.65,0,0,1,.53.22.82.82,0,0,1,0,1.05.64.64,0,0,1-.53.24H80.13a4.58,4.58,0,0,0-1.45.17,1.08,1.08,0,0,0-.71.62,3.19,3.19,0,0,0-.2,1.3v1a27.37,27.37,0,0,1-.39,4.91A13.14,13.14,0,0,1,76,35.34a.81.81,0,0,1-.48.41A1,1,0,0,1,74.89,35.72Zm7.77.29a6.08,6.08,0,0,1-2.06-.28,1.86,1.86,0,0,1-1.09-1,4.86,4.86,0,0,1-.32-1.94,4.87,4.87,0,0,1,.32-2,1.87,1.87,0,0,1,1.09-1,6.08,6.08,0,0,1,2.06-.28h.17V24.45a.81.81,0,0,1,.25-.64.82.82,0,0,1,.59-.24.85.85,0,0,1,.61.24.84.84,0,0,1,.24.64v1.44h5.07a.75.75,0,0,1,.57.23.76.76,0,0,1,.21.53.77.77,0,0,1-.21.55.74.74,0,0,1-.57.22H84.52V29.6h1.1a6.11,6.11,0,0,1,2.07.28,1.88,1.88,0,0,1,1.08,1,4.87,4.87,0,0,1,.32,2,4.86,4.86,0,0,1-.32,1.94,1.87,1.87,0,0,1-1.08,1,6.11,6.11,0,0,1-2.07.28Zm.15-1.49h2.66a4.87,4.87,0,0,0,1.23-.12.9.9,0,0,0,.6-.49,3.68,3.68,0,0,0,0-2.21.9.9,0,0,0-.6-.49,5,5,0,0,0-1.23-.11H82.81a5,5,0,0,0-1.23.11.86.86,0,0,0-.61.49,3.9,3.9,0,0,0,0,2.21.86.86,0,0,0,.61.49A4.87,4.87,0,0,0,82.81,34.52Z"/><path class="cls-2" d="M100.48,36.26a1,1,0,0,1-.65-.22.83.83,0,0,1-.3-.59.82.82,0,0,1,.22-.64,1.09,1.09,0,0,1,.72-.31,5.08,5.08,0,0,0,1-.17.71.71,0,0,0,.44-.38,2.12,2.12,0,0,0,.11-.75V27.33H95.43a.75.75,0,0,1-.76-.75.71.71,0,0,1,.22-.53.74.74,0,0,1,.54-.23h7.86l-1.2-.75c-.44-.25-.85-.5-1.26-.72l-1.07-.6a.69.69,0,0,1-.37-.46.74.74,0,0,1,.09-.58.77.77,0,0,1,.51-.39.94.94,0,0,1,.62.06l1.09.58c.41.23.84.47,1.27.74l.85-.48,1-.55.77-.41c.19-.11.27-.22.25-.32s-.15-.15-.36-.15H96.9a.67.67,0,0,1-.5-.23.74.74,0,0,1-.22-.53.7.7,0,0,1,.22-.52.69.69,0,0,1,.5-.21h9.33a2.11,2.11,0,0,1,1.23.31,1.33,1.33,0,0,1,.55.8,1.42,1.42,0,0,1-.15,1,2.09,2.09,0,0,1-.88.86l-1.19.66c-.45.26-.89.49-1.31.71l.36.23.31.2a.72.72,0,0,1,.32.77h2.92a2.17,2.17,0,0,1,1.51.46,1.35,1.35,0,0,1,.45,1.13,2.17,2.17,0,0,1-.76,1.33c-.38.36-.84.78-1.38,1.25s-1,.9-1.5,1.27a.93.93,0,0,1-.66.2.82.82,0,0,1-.65-.31.75.75,0,0,1-.16-.65,1,1,0,0,1,.37-.56c.29-.21.59-.45.89-.71s.6-.5.86-.74L108,28c.2-.16.27-.31.23-.44s-.18-.19-.42-.19h-4.07v6.21a2.68,2.68,0,0,1-.72,2.07A3.74,3.74,0,0,1,100.48,36.26Z"/><path class="cls-2" d="M118.48,36.26a.76.76,0,0,1-.53-.21.75.75,0,0,1-.22-.56v-7l-1.39.15c-.44.06-.82.1-1.13.12a.83.83,0,0,1-.6-.17.76.76,0,0,1-.27-.51.64.64,0,0,1,.17-.53.77.77,0,0,1,.55-.25,7.23,7.23,0,0,0,.89,0c.2-.24.43-.53.67-.86s.5-.68.77-1.05c-.22-.18-.5-.4-.85-.66l-1-.79a9.08,9.08,0,0,0-.81-.58.68.68,0,0,1-.28-.46.69.69,0,0,1,.1-.53A.84.84,0,0,1,115,22a.73.73,0,0,1,.55.13l.25.18.32.23q.24-.34.51-.81l.52-.92c.17-.3.3-.55.4-.75a.7.7,0,0,1,.44-.37.75.75,0,0,1,.55,0,.78.78,0,0,1,.35.39.63.63,0,0,1,0,.53c-.13.25-.29.54-.49.87s-.4.66-.61,1l-.54.84.56.42.45.36.84-1.29c.26-.4.46-.74.62-1a.7.7,0,0,1,.46-.36.85.85,0,0,1,.57.11A.7.7,0,0,1,121,22a.65.65,0,0,1-.09.54q-.36.62-.9,1.41c-.36.54-.74,1.08-1.13,1.62s-.78,1.06-1.16,1.54l1.29-.1,1.14-.11-.19-.33a2.27,2.27,0,0,0-.18-.28.61.61,0,0,1,0-.51.71.71,0,0,1,.32-.38.74.74,0,0,1,.54-.07.73.73,0,0,1,.42.34l.46.73.51.88c.17.3.31.55.41.77a.68.68,0,0,1-.32,1,.71.71,0,0,1-.57.05.69.69,0,0,1-.4-.37l-.13-.28c0-.1-.1-.21-.16-.32l-.74.09-.88.13v7.13a.75.75,0,0,1-.22.56A.76.76,0,0,1,118.48,36.26Zm-3.54-2.09a.7.7,0,0,1-.39-.33.58.58,0,0,1,0-.53,8.4,8.4,0,0,0,.44-1c.15-.39.29-.8.43-1.22a10.49,10.49,0,0,0,.28-1.1.7.7,0,0,1,.31-.45.75.75,0,0,1,1,.21.6.6,0,0,1,.09.53c-.07.35-.17.73-.29,1.15s-.27.83-.42,1.24a8.38,8.38,0,0,1-.46,1.06.73.73,0,0,1-.36.44A.71.71,0,0,1,114.94,34.17Zm7-.88a.67.67,0,0,1-.94-.45q-.15-.35-.33-.84c-.13-.33-.25-.65-.35-1s-.2-.6-.27-.82a.62.62,0,0,1,0-.54.74.74,0,0,1,1-.25.7.7,0,0,1,.34.44c.07.22.16.49.28.8s.23.63.36.94.25.56.35.77a.69.69,0,0,1-.45.93Zm4.23,2.61a1.08,1.08,0,0,1-.62-.15.84.84,0,0,1-.13-1.16.69.69,0,0,1,.53-.27,6.19,6.19,0,0,0,1.37-.2,1.11,1.11,0,0,0,.67-.51,3.24,3.24,0,0,0,.32-1.07,29.49,29.49,0,0,0,.26-2.94c0-1.14.08-2.37.08-3.71a1.7,1.7,0,0,0-.31-1.2,1.88,1.88,0,0,0-1.22-.29h-3.13c-.16.36-.33.71-.51,1a8.61,8.61,0,0,1-.54.92.84.84,0,0,1-.49.38.76.76,0,0,1-.62-.09.73.73,0,0,1-.35-.47.65.65,0,0,1,.08-.56,12.83,12.83,0,0,0,.91-1.64c.29-.63.56-1.27.8-1.91s.42-1.22.56-1.72a.7.7,0,0,1,.37-.5.76.76,0,0,1,1.12.88l-.33,1.07c-.13.38-.26.76-.41,1.14h2.67a5,5,0,0,1,1.73.24,1.52,1.52,0,0,1,.92.85,4.5,4.5,0,0,1,.28,1.81c0,1.49,0,2.79-.08,3.9s-.14,2.08-.24,2.92a5.61,5.61,0,0,1-.56,2,2.23,2.23,0,0,1-1.14,1A6.48,6.48,0,0,1,126.12,35.9Zm.3-5.27a.86.86,0,0,1-.57.08.58.58,0,0,1-.44-.35,9.42,9.42,0,0,0-.45-.9c-.18-.33-.36-.64-.54-1s-.36-.57-.52-.79a.62.62,0,0,1-.08-.53.7.7,0,0,1,.33-.42.79.79,0,0,1,.56-.09.73.73,0,0,1,.47.3c.24.34.51.76.81,1.27s.55,1,.74,1.38a.78.78,0,0,1,.06.58A.68.68,0,0,1,126.42,30.63Z"/><path class="cls-2" d="M143.83,35.29a.89.89,0,0,1-.59-.26.75.75,0,0,1-.22-.59.8.8,0,0,1,.24-.58.76.76,0,0,1,.59-.23,4.94,4.94,0,0,0,2.66-.51,2,2,0,0,0,0-3.32,4.87,4.87,0,0,0-2.57-.58,12.43,12.43,0,0,0-1.39.07,9.78,9.78,0,0,0-1.26.19v2.44a3.64,3.64,0,0,1-.75,2.53,2.85,2.85,0,0,1-2.24.82,3.1,3.1,0,0,1-2-.63,2.32,2.32,0,0,1-.78-1.92,3.6,3.6,0,0,1,1.13-2.6,7.39,7.39,0,0,1,3-1.74V25.19l-1.65.12-1.46.06a.79.79,0,0,1-.6-.22.83.83,0,0,1-.25-.59.72.72,0,0,1,.25-.57.89.89,0,0,1,.58-.26l1.49-.05c.54,0,1.09-.06,1.64-.11V21a.79.79,0,0,1,.25-.6.85.85,0,0,1,1.16,0,.85.85,0,0,1,.23.6v2.41l1-.11.91-.11a.91.91,0,0,1,.61.14.8.8,0,0,1,.17,1.12.87.87,0,0,1-.55.31c-.3,0-.63.09-1,.13l-1.15.12V28c.42-.08.85-.14,1.3-.18s.9-.05,1.38-.05a6.21,6.21,0,0,1,3.77,1,3.17,3.17,0,0,1,1.36,2.71,3.35,3.35,0,0,1-1.39,2.9A6.15,6.15,0,0,1,143.83,35.29Zm-5.53-1.6a1.32,1.32,0,0,0,1-.36,2.1,2.1,0,0,0,.34-1.41V30a5,5,0,0,0-1.82,1.19,2.15,2.15,0,0,0-.66,1.49,1,1,0,0,0,.29.75A1.14,1.14,0,0,0,138.3,33.69Zm9.92-7.08c-.22-.15-.49-.33-.82-.53l-1-.58c-.32-.19-.59-.34-.82-.45a1,1,0,0,1-.43-.48.68.68,0,0,1,0-.62.75.75,0,0,1,.49-.42.82.82,0,0,1,.62,0c.27.13.58.3,1,.51s.73.43,1.09.65.65.42.88.59a.75.75,0,0,1,.31.53.82.82,0,0,1-.17.6.74.74,0,0,1-.52.32A.81.81,0,0,1,148.22,26.61Z"/><path class="cls-2" d="M162.13,36.32a.87.87,0,0,1-.6-.25.82.82,0,0,1-.26-.62v-4H160a14,14,0,0,1-2.36-.17,3.32,3.32,0,0,1-1.47-.61,2.36,2.36,0,0,1-.76-1.27,8.9,8.9,0,0,1-.22-2.14v-.87a8.75,8.75,0,0,1,.22-2.13,2.29,2.29,0,0,1,.76-1.26,3.1,3.1,0,0,1,1.47-.61,13,13,0,0,1,2.36-.17h1.26V20.35a.82.82,0,0,1,.26-.62.86.86,0,0,1,.6-.24.88.88,0,0,1,.62.24.85.85,0,0,1,.25.62v1.84h1.28a12.76,12.76,0,0,1,2.36.17,3.1,3.1,0,0,1,1.47.61,2.35,2.35,0,0,1,.76,1.26,8.82,8.82,0,0,1,.21,2.13v.87a9,9,0,0,1-.21,2.14,2.42,2.42,0,0,1-.76,1.27,3.32,3.32,0,0,1-1.47.61,13.7,13.7,0,0,1-2.36.17H163v4a.85.85,0,0,1-.25.62A.89.89,0,0,1,162.13,36.32ZM156.93,26h4.34V23.7H160a13.3,13.3,0,0,0-1.57.07,1.91,1.91,0,0,0-.91.31,1.17,1.17,0,0,0-.45.7A5,5,0,0,0,156.93,26ZM160,29.91h1.26V27.5h-4.34a5,5,0,0,0,.13,1.29,1.21,1.21,0,0,0,.45.73,1.91,1.91,0,0,0,.93.32C158.84,29.88,159.36,29.91,160,29.91ZM163,26h4.35a5.64,5.64,0,0,0-.14-1.26,1.17,1.17,0,0,0-.45-.7,2,2,0,0,0-.92-.31,13.12,13.12,0,0,0-1.56-.07H163Zm0,3.87h1.28c.64,0,1.17,0,1.57-.07a2,2,0,0,0,.93-.32,1.31,1.31,0,0,0,.45-.73,5.53,5.53,0,0,0,.12-1.29H163Z"/><path class="cls-2" d="M182.46,35.31a4.69,4.69,0,0,1-3.17-1,4.05,4.05,0,0,1-1.17-3.24V21.41a.75.75,0,0,1,.24-.57.81.81,0,0,1,1.15,0,.76.76,0,0,1,.25.57v9.65a2.55,2.55,0,0,0,.69,2.06,3.09,3.09,0,0,0,2,.57,4.08,4.08,0,0,0,2.3-.67,4.59,4.59,0,0,0,1.64-2,.74.74,0,0,1,.47-.41.88.88,0,0,1,.64,0,.82.82,0,0,1,.43.48.83.83,0,0,1,0,.64,5.82,5.82,0,0,1-2.26,2.65A6.1,6.1,0,0,1,182.46,35.31Z"/><path class="cls-2" d="M203.89,35.72a23.86,23.86,0,0,1-3-.17,7.76,7.76,0,0,1-2.18-.58,5.28,5.28,0,0,1-1.58-1.08l-.7.5-.81.59-.6.44a.87.87,0,0,1-.65.14.78.78,0,0,1-.55-.36.87.87,0,0,1-.11-.65.69.69,0,0,1,.38-.5l.58-.34q.38-.2.78-.45c.28-.16.52-.3.72-.44v-4.1a.92.92,0,0,0-.17-.65.86.86,0,0,0-.64-.18h-1.08a.72.72,0,0,1-.55-.22.79.79,0,0,1-.2-.53.76.76,0,0,1,.2-.53.7.7,0,0,1,.55-.23h1.62a1.59,1.59,0,0,1,1.84,1.84v4.32a5.54,5.54,0,0,0,1.35,1,6.4,6.4,0,0,0,1.88.53,21.37,21.37,0,0,0,2.94.16c1.08,0,2.06,0,2.93-.05s1.64-.06,2.31-.11a.89.89,0,0,1,.69.19.72.72,0,0,1,.27.58.84.84,0,0,1-.23.61,1,1,0,0,1-.69.26h-1.62l-1.87,0ZM197,23.59a9.68,9.68,0,0,0-.71-.67l-.86-.72c-.3-.24-.56-.43-.78-.59a.65.65,0,0,1-.27-.5.79.79,0,0,1,.19-.54.78.78,0,0,1,.51-.3.75.75,0,0,1,.57.15c.26.17.53.37.84.61l.9.71c.29.24.54.45.73.63a.81.81,0,0,1,0,1.17.94.94,0,0,1-.57.26A.72.72,0,0,1,197,23.59Zm2.74,9a.94.94,0,0,1-.64.2.75.75,0,0,1-.58-.31.67.67,0,0,1-.16-.55.79.79,0,0,1,.28-.49A11.1,11.1,0,0,0,200.86,29a16.69,16.69,0,0,0,1.62-3,17.35,17.35,0,0,0,1-3.26,1.16,1.16,0,0,0-1-.4h-2a.8.8,0,0,1-.59-.22.8.8,0,0,1,0-1.1.8.8,0,0,1,.59-.22h2.14a2.71,2.71,0,0,1,1.79.46,2.49,2.49,0,0,1,.62,1.7,11.83,11.83,0,0,0,.78,3.23A12.47,12.47,0,0,0,207.34,29a14.06,14.06,0,0,0,2.15,2.33.8.8,0,0,1,.28.55.83.83,0,0,1-.17.59.9.9,0,0,1-.59.31.87.87,0,0,1-.67-.19,14,14,0,0,1-2.49-2.89,13.17,13.17,0,0,1-1.74-3.84,16.64,16.64,0,0,1-1.79,3.76A12.76,12.76,0,0,1,199.7,32.61Z"/><path class="cls-2" d="M221.53,35a.87.87,0,0,1-.24-.58.74.74,0,0,1,.23-.58,10.5,10.5,0,0,0,1.44-1.9,15.64,15.64,0,0,0,1.13-2.33,17.28,17.28,0,0,0-1.71-.39c-.55-.1-1.09-.17-1.6-.22a9,9,0,0,1-1.64,2.41,4.23,4.23,0,0,1-2,1.21,3.26,3.26,0,0,1-1.51.06,1.87,1.87,0,0,1-1.09-.65,2,2,0,0,1-.41-1.3,2.72,2.72,0,0,1,.56-1.65,3.75,3.75,0,0,1,1.76-1.19,9,9,0,0,1,3.12-.45h.11c.14-.38.28-.78.41-1.21s.25-.89.36-1.37c.2-.86.18-1.44-.08-1.72s-.78-.37-1.58-.28l-.55.07-.67.09-.5.06a.81.81,0,0,1-.6-.2.83.83,0,0,1-.29-.56.87.87,0,0,1,.2-.6.76.76,0,0,1,.56-.28l.83-.08.86-.06c1.56-.1,2.61.17,3.13.79s.63,1.67.29,3.13c-.09.41-.2.81-.31,1.2s-.24.76-.37,1.12a27.67,27.67,0,0,1,3.15.6,10.71,10.71,0,0,0,.41-2.65.84.84,0,0,1,1.4-.59.71.71,0,0,1,.22.57,11.3,11.3,0,0,1-.14,1.53c-.09.52-.19,1-.33,1.57.41.12.81.25,1.21.39s.78.28,1.15.42a.76.76,0,0,1,.44.44.71.71,0,0,1,0,.62.73.73,0,0,1-.44.45.75.75,0,0,1-.62,0l-1.11-.44-1.1-.39a17.37,17.37,0,0,1-1.31,2.71A12.32,12.32,0,0,1,222.69,35a.87.87,0,0,1-.57.24A.82.82,0,0,1,221.53,35Zm-4.77-3.89a2.75,2.75,0,0,0,1.14-.69A6.54,6.54,0,0,0,219,28.92a6.22,6.22,0,0,0-1.93.32,2.24,2.24,0,0,0-1,.64,1.25,1.25,0,0,0-.29.77.44.44,0,0,0,.25.42A1,1,0,0,0,216.76,31.08Z"/><path class="cls-2" d="M241.78,21.53l7.63,5.29a1.43,1.43,0,0,1,0,2.36l-7.63,5.29a1.44,1.44,0,0,1-2.26-1.18V22.71A1.44,1.44,0,0,1,241.78,21.53Z"/><path class="cls-2" d="M46.49,37l-8.76-9.08L34.92,30a.57.57,0,0,1-.13.08s0,0,0,0l-.15.06h0l-.2,0-.17,0h0L34,30.09h0L33.87,30l-2.81-2.07L22.31,37Z"/><path class="cls-2" d="M29.72,26.93l-6.45-4.78a.88.88,0,0,1,1.05-1.42L34.39,28.2l10.08-7.47a.88.88,0,1,1,1.05,1.42l-6.44,4.77,8.81,9.14a.49.49,0,0,0,0-.12V20.06A1.06,1.06,0,0,0,46.84,19H22a1,1,0,0,0-1.05,1.06v16Z"/></g></g></svg>