<svg xmlns="http://www.w3.org/2000/svg" xmlns:xlink="http://www.w3.org/1999/xlink" viewBox="0 0 271.41 56"><defs><style>.cls-1{fill:url(#名称未設定グラデーション_139);}.cls-2{fill:#fff;}</style><linearGradient id="名称未設定グラデーション_139" x1="135.71" y1="56" x2="135.71" gradientUnits="userSpaceOnUse"><stop offset="0" stop-color="#e50012"/><stop offset="0.5" stop-color="#af0012"/><stop offset="0.5" stop-color="#e00012"/><stop offset="1" stop-color="#e50012"/></linearGradient></defs><g id="Layer_2" data-name="Layer 2"><g id="レイヤー_1" data-name="レイヤー 1"><rect class="cls-1" width="271.41" height="56" rx="28"/><path class="cls-2" d="M65.57,29.35a16.78,16.78,0,0,0,6.1,4.54,9.77,9.77,0,0,0-1.49,1.8,18.14,18.14,0,0,1-5.89-4.94v5.53H62V30.79a18.63,18.63,0,0,1-5.9,4.86,10.29,10.29,0,0,0-1.52-1.8,17.12,17.12,0,0,0,6.16-4.5H55.11V27.3h3.4a12.38,12.38,0,0,0-1.35-3.1L59,23.5H56V21.44H62v-2h2.27v2h6.23V23.5h-3l2.07.61a33.73,33.73,0,0,1-1.89,3.19H71.2v2.05ZM59.09,23.5a13,13,0,0,1,1.53,3.13l-1.71.67H62V23.5Zm5.2,0v3.8h3l-1.51-.53a20.46,20.46,0,0,0,1.53-3.27Z"/><path class="cls-2" d="M91.18,21.57v2H78.13v2.51c0,2.9-.27,7.34-1.89,10.15a9.7,9.7,0,0,0-1.86-1.2c1.48-2.58,1.61-6.36,1.61-9V21.57H82.4V19.5h2.23v2.07Zm-5.85,4H91v1.89H85.33v2h4.56v6.86h-2.2v-.65H81.3v.67H79.21V29.42h3.94V23.87h2.18Zm2.36,5.74H81.3v2.45h6.39Z"/><path class="cls-2" d="M111.09,26.94a23.69,23.69,0,0,1-2.88,4.69l-1.84-1.06a20.8,20.8,0,0,0,1.41-2.21H104V34c0,1.13-.25,1.67-1.12,2a11.44,11.44,0,0,1-3.54.32,7.22,7.22,0,0,0-.78-2c1.06,0,2.4,0,2.76,0s.45-.09.45-.36V28.36H94.63v-2h8.2c-1.34-.55-2.79-1.13-4-1.56L100,23.14c.81.28,1.81.63,2.82,1a17.78,17.78,0,0,0,2.29-1.69h-8.7v-2h10.77l.49-.13,1.53,1.21A30.73,30.73,0,0,1,105,25c.59.23,1.13.43,1.55.63l-.44.7H109l.39-.14Z"/><path class="cls-2" d="M116.6,30.32A16.85,16.85,0,0,1,115.52,35a10.33,10.33,0,0,0-1.64-.78,13,13,0,0,0,1-4.18Zm14-7.8s0,.72,0,1c-.24,7.89-.49,10.74-1.25,11.69a2.24,2.24,0,0,1-1.72,1,16.63,16.63,0,0,1-2.81.05,5.26,5.26,0,0,0-.72-2.16c1.13.11,2.16.11,2.64.11a.9.9,0,0,0,.76-.3c.54-.56.81-3.19,1-9.33h-5A15.29,15.29,0,0,1,122,26.88a15.08,15.08,0,0,0-1.7-1.19,14.6,14.6,0,0,1,1.41,3.37l-1.62.76c-.06-.29-.15-.62-.25-1l-1,.08v7.4h-1.89V29.06l-2.67.18-.17-1.87,1.33-.06c.27-.34.56-.72.83-1.11a17.53,17.53,0,0,0-2.16-2.47l1-1.48.44.38a24.62,24.62,0,0,0,1.31-3.13l1.89.67c-.65,1.24-1.39,2.62-2,3.63.23.25.45.52.63.76A29.36,29.36,0,0,0,119,21.61l1.82.75a57.81,57.81,0,0,1-3.44,4.88l1.82-.07c-.2-.43-.41-.86-.63-1.24l1.51-.67.13.22a14.46,14.46,0,0,0,3-6l2.2.47a20,20,0,0,1-.89,2.57Zm-10.17,7.39a20.37,20.37,0,0,1,1.17,3.38l-1.69.6a18.8,18.8,0,0,0-1.06-3.48Zm4.21,1.83a17,17,0,0,0-2.19-4.16l1.71-.86a17.24,17.24,0,0,1,2.34,4Z"/><path class="cls-2" d="M141,21.68c0,.39,0,.83,0,1.28a23.11,23.11,0,0,0,3.31-.65l0,2.23c-1,.23-2.27.41-3.44.56,0,.54,0,1.1,0,1.62v.67a14.64,14.64,0,0,1,3.45-.47c2.78,0,5,1.44,5,3.92,0,2.13-1.12,3.73-4,4.45a17.43,17.43,0,0,1-2.36.29l-.83-2.32a13.55,13.55,0,0,0,2.21-.13c1.46-.27,2.61-1,2.61-2.31s-1.08-1.94-2.64-1.94a12.31,12.31,0,0,0-3.39.5c0,1.43.07,2.83.07,3.44,0,2.24-.79,2.83-2,2.83-1.74,0-4.21-1.51-4.21-3.42,0-1.57,1.8-3.21,4-4.16,0-.43,0-.87,0-1.28V25.28c-.34,0-.67,0-1,0a20,20,0,0,1-2.52-.1l0-2.17a21,21,0,0,0,2.48.14c.33,0,.69,0,1.05,0,0-.63,0-1.15,0-1.45a15.81,15.81,0,0,0-.12-1.59h2.48C141.15,20.44,141.08,21.21,141,21.68Zm-2.7,11.5c.32,0,.58-.14.58-.75,0-.45,0-1.28-.06-2.25-1.1.59-1.83,1.33-1.83,2S137.87,33.18,138.34,33.18Zm12.42-8.59-1.08,1.84a28.12,28.12,0,0,0-4.34-2.63l1-1.74A36.76,36.76,0,0,1,150.76,24.59Z"/><path class="cls-2" d="M169.46,21.88V32.53h-2.23v-.86h-4v4.61H161V31.67h-3.9v.95h-2.15V21.88h6V19.46h2.26v2.42Zm-12.38,2.05v1.82H161V23.93Zm3.9,5.69V27.71h-3.9v1.91Zm2.26-5.69v1.82h4V23.93Zm4,5.69V27.71h-4v1.91Z"/><path class="cls-2" d="M179.4,22.85c-.07,1.94-.22,6-.22,8.21a2.18,2.18,0,0,0,2.49,2.41,7.19,7.19,0,0,0,6.15-3.67l1.64,2a9.31,9.31,0,0,1-7.81,4.14c-3,0-4.86-1.3-4.86-4.38,0-2.41.18-7.14.18-8.69a10.94,10.94,0,0,0-.24-2.43l2.9,0C179.52,21.21,179.43,22.13,179.4,22.85Z"/><path class="cls-2" d="M197.76,32.12c.74,1.21,2.09,1.69,4,1.77,2.11.09,6.16,0,8.55-.15a11.1,11.1,0,0,0-.66,2.16c-2.17.11-5.78.15-7.93.06s-3.69-.6-4.86-2c-.79.7-1.58,1.4-2.57,2.16l-1.05-2.23a23.22,23.22,0,0,0,2.47-1.66v-3.8H193.6v-2h4.16ZM196.51,24a13.27,13.27,0,0,0-2.89-2.85l1.58-1.29a14.37,14.37,0,0,1,3,2.71Zm6.86,0c-.07-.59-.14-1.2-.19-1.82H200v-2h5c.27,5.09,1.35,9.43,5.09,11.3a9.58,9.58,0,0,0-1.67,1.64,9.89,9.89,0,0,1-4.32-5.9,11.55,11.55,0,0,1-4.24,5.92,12.1,12.1,0,0,0-1.65-1.62c2.52-1.49,3.91-4.18,4.46-7.62Z"/><path class="cls-2" d="M217.9,21.19c1,0,2.93-.09,3.78-.16a4.17,4.17,0,0,0,1.23-.25l1.44,1.11a4.41,4.41,0,0,0-.62.76,40.24,40.24,0,0,0-1.8,3.87,16.51,16.51,0,0,1,3.91,1.15c0-.21,0-.41,0-.61a10.65,10.65,0,0,0,0-2l2.36.27a29,29,0,0,1-.34,3.33c.76.43,1.41.85,1.93,1.21l-1.05,2.5a16.93,16.93,0,0,0-1.55-1.26A9,9,0,0,1,222.67,36l-1.91-1.57a7.78,7.78,0,0,0,4.58-4.52,12.63,12.63,0,0,0-4.27-1.46,36.58,36.58,0,0,1-2,4.33,3.13,3.13,0,0,1-2.8,1.58,2.7,2.7,0,0,1-2.78-2.92c0-2.79,2.54-4.91,6.16-5.07.51-1.19,1-2.42,1.44-3.26-.72,0-2.27.09-3.1.14-.36,0-1,.07-1.45.14l-.09-2.32A13.47,13.47,0,0,0,217.9,21.19ZM216.32,32c.36,0,.61-.18.93-.63a19.88,19.88,0,0,0,1.46-2.93c-2,.3-3.15,1.53-3.15,2.66C215.56,31.72,215.9,32,216.32,32Z"/><path class="cls-2" d="M241.78,21.53l7.63,5.29a1.43,1.43,0,0,1,0,2.36l-7.63,5.29a1.44,1.44,0,0,1-2.26-1.18V22.71A1.44,1.44,0,0,1,241.78,21.53Z"/><path class="cls-2" d="M46.49,37l-8.76-9.08L34.92,30a.57.57,0,0,1-.13.08s0,0,0,0l-.15.06h0l-.2,0-.17,0h0L34,30.09h0L33.87,30l-2.81-2.07L22.31,37Z"/><path class="cls-2" d="M29.72,26.93l-6.45-4.78a.88.88,0,0,1,1.05-1.42L34.39,28.2l10.08-7.47a.88.88,0,1,1,1.05,1.42l-6.44,4.77,8.81,9.14a.49.49,0,0,0,0-.12V20.06A1.06,1.06,0,0,0,46.84,19H22a1,1,0,0,0-1.05,1.06v16Z"/></g></g></svg>