<svg width="50" height="50" viewBox="0 0 50 50" fill="none" xmlns="http://www.w3.org/2000/svg">
<rect width="50" height="50" rx="25" fill="#1E257D"/>
<path d="M18.5329 29.5087C28.4372 44.64 35.2047 38.9526 35.2047 38.9526C35.2047 38.9526 36.9697 37.7879 37 36.6651C37 35.9096 36.1225 34.7763 35.3358 33.6116C34.8196 32.6671 34.135 31.8337 33.3187 31.1561C31.9974 30.4951 30.2929 32.3104 30.2929 32.3104C27.2672 34.9547 22.0226 26.9694 22.0226 26.9694C22.0226 26.9694 16.5762 19.089 20.0054 17.0428C20.0054 17.0428 22.2041 15.9934 22.0226 14.5244C21.6915 13.4925 21.1708 12.5374 20.4895 11.7122C19.7028 10.558 18.9867 9.30927 18.3008 9.05743C17.2923 8.71116 15.6181 10.0438 15.6181 10.0438C15.6181 10.0438 8.13438 14.7133 18.4723 29.5402L18.5329 29.5087Z" fill="white"/>
</svg>
