<svg width="50" height="50" viewBox="0 0 50 50" fill="none" xmlns="http://www.w3.org/2000/svg">
<rect width="50" height="50" rx="25" fill="#E40112"/>
<path d="M0 25H50V25C50 38.8071 38.8071 50 25 50V50C11.1929 50 0 38.8071 0 25V25Z" fill="#CD0012"/>
<path d="M39.9786 36L29.4288 25L26.0447 27.5226L25.8881 27.6196L25.7075 27.6924C25.6316 27.7032 25.5546 27.7032 25.4787 27.6924C25.407 27.7051 25.3336 27.7051 25.2619 27.6924C25.1951 27.6755 25.1304 27.6511 25.0691 27.6196L24.9005 27.5226L21.5285 25L10.9786 36H39.9786Z" fill="white"/>
<path d="M19.7311 23.7614L11.8476 17.8775C11.7304 17.7945 11.631 17.6885 11.5555 17.5659C11.48 17.4433 11.4299 17.3067 11.4082 17.1641C11.3864 17.0216 11.3935 16.8761 11.4291 16.7364C11.4646 16.5967 11.5278 16.4656 11.615 16.3511C11.7876 16.1239 12.0417 15.9736 12.323 15.9322C12.6043 15.8908 12.8907 15.9616 13.1208 16.1296L25.4603 25.3247L37.7875 16.1296C38.0195 15.9609 38.3078 15.8897 38.5911 15.9311C38.8744 15.9725 39.1308 16.1231 39.3055 16.3511C39.3911 16.4663 39.4528 16.5974 39.4874 16.7368C39.522 16.8762 39.5288 17.0212 39.5071 17.1633C39.4855 17.3053 39.436 17.4416 39.3614 17.5643C39.2869 17.6869 39.1888 17.7934 39.0729 17.8775L31.1894 23.7614L41.9741 35C41.9801 34.9509 41.9801 34.9013 41.9741 34.8523V15.3048C41.9741 14.9587 41.8375 14.6269 41.5941 14.3822C41.3508 14.1375 41.0207 14 40.6766 14H10.2073C9.875 14.0159 9.56172 14.1608 9.33342 14.4041C9.10513 14.6474 8.97961 14.9703 8.98315 15.3048V34.8523C8.97713 34.9013 8.97713 34.9509 8.98315 35L19.7311 23.7614Z" fill="white"/>
</svg>
