<svg xmlns="http://www.w3.org/2000/svg" viewBox="0 0 151.34 35.98"><defs><style>.cls-1{fill:#1e257d;}.cls-2{fill:#231815;}.cls-3{fill:#e50012;}</style></defs><g id="Layer_2" data-name="Layer 2"><g id="レイヤー_1" data-name="レイヤー 1"><path class="cls-1" d="M96.52,28.18a3.54,3.54,0,0,1,3.72,3.76,3.48,3.48,0,0,1-3.5,3.78H93A1.94,1.94,0,0,0,93.58,34V29.91c0-1-.08-1.31-.59-1.73Zm-.69,5.67h.52c1.08,0,1.44-.83,1.44-1.81,0-1.21-.51-1.91-1.41-1.91h-.55Z"/><path class="cls-1" d="M106.08,28.18c-.17.19-.22.28-.22.42a1.41,1.41,0,0,0,.08.39l1.73,5.31a3,3,0,0,0,.9,1.42h-3.06a.46.46,0,0,0,.2-.39,1.08,1.08,0,0,0,0-.3l-.27-1h-2.28l-.29.95a1.39,1.39,0,0,0-.07.33.49.49,0,0,0,.2.38H99.84a2.39,2.39,0,0,0,.81-1.24L102.6,29a.8.8,0,0,0,.07-.36.51.51,0,0,0-.23-.42Zm-1.16,4.23c-.25-.7-.45-1.4-.64-2.11-.24.74-.46,1.41-.67,2.11Z"/><path class="cls-1" d="M109.39,30c0-.94-.1-1.4-.58-1.78h3.54c-.51.29-.66.64-.66,2v3.27c0,1.22.06,1.86.59,2.31h-3.46a2.33,2.33,0,0,0,.57-1.87Z"/><path class="cls-1" d="M115.46,31.55l1.4-2.36a1.33,1.33,0,0,0,.22-.64.53.53,0,0,0-.14-.37h3.28A4.81,4.81,0,0,0,119,29.51l-1.31,1.93.83,1.48c1.16,2,1.4,2.38,1.89,2.8h-3.09c-.61-1.26-1.26-2.58-1.87-3.82v1.23c0,1.86.06,2,.5,2.59h-3.48c.47-.21.66-.65.66-2.39V30.42c0-1.28-.07-1.79-.55-2.24H116c-.39.38-.52.59-.52,2.4Z"/><path class="cls-1" d="M121.06,30c0-.94-.09-1.4-.57-1.78H124c-.5.29-.65.64-.65,2v3.27c0,1.22,0,1.86.59,2.31H120.5a2.32,2.32,0,0,0,.56-1.87Z"/><path class="cls-1" d="M129.89,31.05a2,2,0,0,0-1.6-.72,1.57,1.57,0,0,0-1.63,1.59,1.71,1.71,0,0,0,1.92,1.66,1.86,1.86,0,0,0,1.5-.69l-.2,3a.61.61,0,0,0-.43-.13c-.34,0-.66.13-1.48.13a3.85,3.85,0,0,1-3.81-4A3.67,3.67,0,0,1,128,28c.62,0,.82.1,1.22.1a.91.91,0,0,0,.6-.19Z"/><path class="cls-1" d="M131.06,29.81c0-.75-.07-1.33-.54-1.63H134c-.54.26-.59.94-.59,1.87v.88h1.84V29.79c0-.84-.08-1.27-.51-1.61h3.4c-.52.34-.54,1.09-.54,1.64v4.24c0,1,.15,1.31.53,1.66h-3.44c.32-.22.56-.38.56-1.75V32.84h-1.85v1.22c0,1,.13,1.32.5,1.66h-3.36c.43-.28.55-.73.55-2.35Z"/><path class="cls-1" d="M139,30c0-.94-.1-1.4-.58-1.78h3.53c-.5.29-.65.64-.65,2v3.27c0,1.22.06,1.86.59,2.31h-3.46a2.33,2.33,0,0,0,.57-1.87Z"/><path class="cls-2" d="M46.58,31.55,48,29.19a1.23,1.23,0,0,0,.22-.64.53.53,0,0,0-.14-.37h3.28a5,5,0,0,0-1.21,1.33l-1.31,1.93.83,1.48c1.16,2,1.4,2.38,1.89,2.8H48.45c-.61-1.26-1.26-2.58-1.87-3.82v1.23c0,1.86.06,2,.5,2.59H43.6c.47-.21.66-.65.66-2.39V30.42c0-1.28-.07-1.79-.55-2.24H47.1c-.39.38-.52.59-.52,2.4Z"/><path class="cls-2" d="M57.8,28.18c-.17.19-.23.28-.23.42a1.5,1.5,0,0,0,.09.39l1.73,5.31a2.93,2.93,0,0,0,.9,1.42H57.22a.46.46,0,0,0,.2-.39,1.08,1.08,0,0,0,0-.3l-.26-1H54.83l-.29.95a1.36,1.36,0,0,0-.06.33.52.52,0,0,0,.19.38H51.55a2.28,2.28,0,0,0,.81-1.24l2-5.52a.92.92,0,0,0,.06-.36.53.53,0,0,0-.22-.42Zm-1.17,4.23c-.24-.7-.44-1.4-.64-2.11-.23.74-.45,1.41-.67,2.11Z"/><path class="cls-2" d="M61.1,30c0-.94-.09-1.4-.57-1.78h3.53c-.5.29-.65.64-.65,2v3.27c0,1.22.05,1.86.59,2.31H60.54a2.32,2.32,0,0,0,.56-1.87Z"/><path class="cls-2" d="M70.54,28.18c.09.83.18,1.68.29,2.52-.41-.6-1-.73-2.22-.76v3.64c0,1.35,0,1.62.51,2.13H65.67c.53-.29.62-.76.62-2.13V29.94a2.67,2.67,0,0,0-2.26.75c.13-.84.26-1.69.34-2.51Z"/><path class="cls-2" d="M74.52,28c2.13,0,3.58,1.45,3.58,3.88,0,2.26-1.37,3.94-3.49,3.94s-3.52-1.74-3.54-3.93C71.07,30.17,72,28,74.52,28Zm.06,5.61c.74,0,1.14-.7,1.14-1.78,0-.67-.23-1.67-1.14-1.67-.65,0-1.14.49-1.14,1.65S73.82,33.65,74.58,33.65Z"/><path class="cls-2" d="M84.85,34.4a6.24,6.24,0,0,0,1,1.32H83c-.52-1.07-1.12-2.17-1.76-3.24v1.68c0,1.06.26,1.29.53,1.56H78.31c.36-.19.64-.5.64-1.82V30.5c0-1.56-.09-1.87-.54-2.32h4c1.19,0,2.54.52,2.54,2.11,0,1.07-.43,1.71-1.44,1.83Zm-3.62-3.13h.41c.49,0,.89-.19.89-.79s-.47-.73-1.06-.73h-.24Z"/><path class="cls-2" d="M86.57,30c0-.94-.1-1.4-.58-1.78h3.53c-.5.29-.65.64-.65,2v3.27c0,1.22.06,1.86.59,2.31H86a2.33,2.33,0,0,0,.57-1.87Z"/><path class="cls-1" d="M96.52,28.18a3.54,3.54,0,0,1,3.72,3.76,3.48,3.48,0,0,1-3.5,3.78H93A1.94,1.94,0,0,0,93.58,34V29.91c0-1-.08-1.31-.59-1.73Zm-.69,5.67h.52c1.08,0,1.44-.83,1.44-1.81,0-1.21-.51-1.91-1.41-1.91h-.55Z"/><path class="cls-1" d="M106.08,28.18c-.17.19-.22.28-.22.42a1.41,1.41,0,0,0,.08.39l1.73,5.31a3,3,0,0,0,.9,1.42h-3.06a.46.46,0,0,0,.2-.39,1.08,1.08,0,0,0,0-.3l-.27-1h-2.28l-.29.95a1.39,1.39,0,0,0-.07.33.49.49,0,0,0,.2.38H99.84a2.39,2.39,0,0,0,.81-1.24L102.6,29a.8.8,0,0,0,.07-.36.51.51,0,0,0-.23-.42Zm-1.16,4.23c-.25-.7-.45-1.4-.64-2.11-.24.74-.46,1.41-.67,2.11Z"/><path class="cls-1" d="M109.39,30c0-.94-.1-1.4-.58-1.78h3.54c-.51.29-.66.64-.66,2v3.27c0,1.22.06,1.86.59,2.31h-3.46a2.33,2.33,0,0,0,.57-1.87Z"/><path class="cls-1" d="M115.46,31.55l1.4-2.36a1.33,1.33,0,0,0,.22-.64.53.53,0,0,0-.14-.37h3.28A4.81,4.81,0,0,0,119,29.51l-1.31,1.93.83,1.48c1.16,2,1.4,2.38,1.89,2.8h-3.09c-.61-1.26-1.26-2.58-1.87-3.82v1.23c0,1.86.06,2,.5,2.59h-3.48c.47-.21.66-.65.66-2.39V30.42c0-1.28-.07-1.79-.55-2.24H116c-.39.38-.52.59-.52,2.4Z"/><path class="cls-1" d="M121.06,30c0-.94-.09-1.4-.57-1.78H124c-.5.29-.65.64-.65,2v3.27c0,1.22,0,1.86.59,2.31H120.5a2.32,2.32,0,0,0,.56-1.87Z"/><path class="cls-1" d="M129.89,31.05a2,2,0,0,0-1.6-.72,1.57,1.57,0,0,0-1.63,1.59,1.71,1.71,0,0,0,1.92,1.66,1.86,1.86,0,0,0,1.5-.69l-.2,3a.61.61,0,0,0-.43-.13c-.34,0-.66.13-1.48.13a3.85,3.85,0,0,1-3.81-4A3.67,3.67,0,0,1,128,28c.62,0,.82.1,1.22.1a.91.91,0,0,0,.6-.19Z"/><path class="cls-1" d="M131.06,29.81c0-.75-.07-1.33-.54-1.63H134c-.54.26-.59.94-.59,1.87v.88h1.84V29.79c0-.84-.08-1.27-.51-1.61h3.4c-.52.34-.54,1.09-.54,1.64v4.24c0,1,.15,1.31.53,1.66h-3.44c.32-.22.56-.38.56-1.75V32.84h-1.85v1.22c0,1,.13,1.32.5,1.66h-3.36c.43-.28.55-.73.55-2.35Z"/><path class="cls-1" d="M139,30c0-.94-.1-1.4-.58-1.78h3.53c-.5.29-.65.64-.65,2v3.27c0,1.22.06,1.86.59,2.31h-3.46a2.33,2.33,0,0,0,.57-1.87Z"/><path class="cls-2" d="M46.58,31.55,48,29.19a1.23,1.23,0,0,0,.22-.64.53.53,0,0,0-.14-.37h3.28a5,5,0,0,0-1.21,1.33l-1.31,1.93.83,1.48c1.16,2,1.4,2.38,1.89,2.8H48.45c-.61-1.26-1.26-2.58-1.87-3.82v1.23c0,1.86.06,2,.5,2.59H43.6c.47-.21.66-.65.66-2.39V30.42c0-1.28-.07-1.79-.55-2.24H47.1c-.39.38-.52.59-.52,2.4Z"/><path class="cls-2" d="M57.8,28.18c-.17.19-.23.28-.23.42a1.5,1.5,0,0,0,.09.39l1.73,5.31a2.93,2.93,0,0,0,.9,1.42H57.22a.46.46,0,0,0,.2-.39,1.08,1.08,0,0,0,0-.3l-.26-1H54.83l-.29.95a1.36,1.36,0,0,0-.06.33.52.52,0,0,0,.19.38H51.55a2.28,2.28,0,0,0,.81-1.24l2-5.52a.92.92,0,0,0,.06-.36.53.53,0,0,0-.22-.42Zm-1.17,4.23c-.24-.7-.44-1.4-.64-2.11-.23.74-.45,1.41-.67,2.11Z"/><path class="cls-2" d="M61.1,30c0-.94-.09-1.4-.57-1.78h3.53c-.5.29-.65.64-.65,2v3.27c0,1.22.05,1.86.59,2.31H60.54a2.32,2.32,0,0,0,.56-1.87Z"/><path class="cls-2" d="M70.54,28.18c.09.83.18,1.68.29,2.52-.41-.6-1-.73-2.22-.76v3.64c0,1.35,0,1.62.51,2.13H65.67c.53-.29.62-.76.62-2.13V29.94a2.67,2.67,0,0,0-2.26.75c.13-.84.26-1.69.34-2.51Z"/><path class="cls-2" d="M74.52,28c2.13,0,3.58,1.45,3.58,3.88,0,2.26-1.37,3.94-3.49,3.94s-3.52-1.74-3.54-3.93C71.07,30.17,72,28,74.52,28Zm.06,5.61c.74,0,1.14-.7,1.14-1.78,0-.67-.23-1.67-1.14-1.67-.65,0-1.14.49-1.14,1.65S73.82,33.65,74.58,33.65Z"/><path class="cls-2" d="M84.85,34.4a6.24,6.24,0,0,0,1,1.32H83c-.52-1.07-1.12-2.17-1.76-3.24v1.68c0,1.06.26,1.29.53,1.56H78.31c.36-.19.64-.5.64-1.82V30.5c0-1.56-.09-1.87-.54-2.32h4c1.19,0,2.54.52,2.54,2.11,0,1.07-.43,1.71-1.44,1.83Zm-3.62-3.13h.41c.49,0,.89-.19.89-.79s-.47-.73-1.06-.73h-.24Z"/><path class="cls-2" d="M86.57,30c0-.94-.1-1.4-.58-1.78h3.53c-.5.29-.65.64-.65,2v3.27c0,1.22.06,1.86.59,2.31H86a2.33,2.33,0,0,0,.57-1.87Z"/><path class="cls-1" d="M31.37,1.16,40.5,17a2.13,2.13,0,0,1,0,2.13L31.37,34.91A2.14,2.14,0,0,1,29.52,36H11.27a2.16,2.16,0,0,1-1.86-1.07L.29,19.1A2.09,2.09,0,0,1,.29,17L9.41,1.16A2.16,2.16,0,0,1,11.27.09H29.52A2.14,2.14,0,0,1,31.37,1.16Zm-8.3,20.05a.92.92,0,0,0,.91-.92V14.94a.92.92,0,0,0-.91-.92H17.71a.92.92,0,0,0-.91.92v5.35a.92.92,0,0,0,.91.92Z"/><path class="cls-2" d="M62.86,1.47H49.23L44.84.29l-2,1.57,2.64,1.89V8.37L56.77,8l10.5.19.12-4.47L68.7,2l-3-1.78ZM52.31,6.12H50V4.34h2.33Zm5.3,0H55.28V4.34h2.33Zm4.87,0H60.15V4.34h2.33Z"/><path class="cls-2" d="M66,12.16l2.19-1.64-3.33-2-2.31.74H48.85l-3.2-.52-1,1.55,1.81,1.42v10h3.26a18.81,18.81,0,0,1-6.16.92L47,26.78C50.4,26,53.6,22.4,53.6,22.4l-2.16-.85v-.48H61v.64h.11l-2.82,1.11s3.69,4.26,6.63,4l3.24-3.87s-4.53.24-6.88-1.2H66ZM61,11.85v1.34H51.44V11.85Zm-9.52,3.07H61v1.34H51.44Zm0,4.42V18H61v1.35Z"/><path class="cls-2" d="M94.71,8l1.65-4.57.23-.74L94.07.39,91.83,2.48a37.94,37.94,0,0,0-6.38-.41,97.83,97.83,0,0,0-11,.58L71.74.57,69.57,3l.12.36,1.92,4.22a14.84,14.84,0,0,1,2.14-.39V19.89H72.66l-1.51-1.5L70,20.82l2.37,5,4.52-2.23,2.83-.78h.12v3.28h3.67V22.3l.59-.16L86,26a40,40,0,0,0,3.74-3.27l.27.24a35.64,35.64,0,0,0,4,3.17h1l1-5.23.21-2.38-.59-.16-1.26,2.1a7.82,7.82,0,0,1-1.83-.76l0,0a16.24,16.24,0,0,0,3.27-6.23h0l.38-1.62-2.24-2.9-7.66.71L85.16,8l-1.54,1.8.44,3.76.51,1.18,1-.18a23.4,23.4,0,0,0,1.8,4.83A16.43,16.43,0,0,1,85,21.21l.09-3.1H83.46v-11C89.24,7.38,94.71,8,94.71,8ZM79.41,18.49l-2.57.33V16.38h2.57Zm0-4.89H76.84V11.68h2.57Zm0-4.71H76.84V7c.82,0,1.69,0,2.57,0Zm9.28,4.63,2.33,0a8.66,8.66,0,0,1-1.17,3A14,14,0,0,1,88.69,14Z"/><path class="cls-1" d="M125.72,15.93l-1.18,3-.33,0,1.21-3.1-.29-.11-.19.43-1.08,2.75-.32,0,.75-1.9-.41.12-.68,1.74-.31-.05.61-1.56-.41.12-.54,1.38-.3-.06.46-1.2-.41.13-.38,1-.3-.09.32-.83a10.4,10.4,0,0,1-5.59-6,35.33,35.33,0,0,1,6.3,1.16L125.21,7,122.94,5l-3.62,1.27a39,39,0,0,0-4-.36,17.78,17.78,0,0,1,.23-3.19l.53-.52-4.33-1v0L108.9.41l-.56.92L107.61.8l-.4.17,1.59,1.46.07.48-2-1.81-.34.14,2.38,2.19.07.49-2.77-2.54-.46.19,3.12,2.79h0L109,6a39.15,39.15,0,0,0-5,.71l-.91-1L104.15,5l-.49-1.4-5,3.32h0l0,0,2.32,6.3a36.83,36.83,0,0,1,7.78-1.53c-1.58,3.61-5.73,6-7.49,6.91l-.4,0,1.38-.93,0-.37-1.46,1-.39-.11,1.83-1.26,0-.39-2.23,1.53L99.53,18l2.6-1.79,0-.43L98.62,18l.78,1.9,1.07-.39.09.29-1,.39.12.31,1-.38.11.29-1,.38.13.31,1-.38L101,21l-1,.37.12.31,1-.38c0,.1.09.19.14.28l-1,.39.13.31,1.08-.4c.05.09.1.18.16.27l-1.12.42.12.3,1.19-.44.19.27-1.26.46.13.31,1.35-.5.23.25-1.47.54.13.31,1.6-.6a3.11,3.11,0,0,0,.28.23l-1.76.66.13.3,2-.73a4.05,4.05,0,0,0,.35.21l-2.2.81.13.31,2.51-.93a4.13,4.13,0,0,0,.5.15l-2.89,1.07.15.36a12.45,12.45,0,0,0,7.73-5.31c-.06-.28-.28-.24-.49-.13a13.78,13.78,0,0,1-2.94,3.09.19.19,0,0,1-.1,0,.18.18,0,0,1-.15-.07.18.18,0,0,1,0-.24,16.74,16.74,0,0,0,5.1-7.27.19.19,0,0,1,.23-.11.18.18,0,0,1,.11.22,18.5,18.5,0,0,1-1.81,3.65c-.08.47.22.48.24.48a19.61,19.61,0,0,0,2.39-5.56v.11c1,8.45,10.49,10.62,10.49,10.62l2-5.92h0L126,16ZM123.19,9.7l1-2.25a.46.46,0,0,0-.1-.51l-.81-.81a.18.18,0,0,1,.25-.25l.89.9a.63.63,0,0,1,.14.7l-1.06,2.36a.17.17,0,0,1-.16.1h-.08A.18.18,0,0,1,123.19,9.7Zm-16.28,1.79a15.35,15.35,0,0,0-4.87.88H102a.19.19,0,0,1-.17-.12.18.18,0,0,1,.11-.22,15.78,15.78,0,0,1,5-.9.18.18,0,0,1,.18.18A.18.18,0,0,1,106.91,11.49Zm8.18-9a.18.18,0,0,1-.17.14h0l-5-1.17a.17.17,0,0,1-.13-.21.16.16,0,0,1,.21-.13l5,1.17A.19.19,0,0,1,115.09,2.5Zm.26,4.17a.18.18,0,0,1-.18-.17.17.17,0,0,1,.17-.18,16.94,16.94,0,0,1,3.82.34.18.18,0,0,1,.13.22.18.18,0,0,1-.17.13h-.05A16.73,16.73,0,0,0,115.35,6.67Zm1,6.33a.18.18,0,0,1,.34-.11,9.34,9.34,0,0,0,4.09,4.57.18.18,0,0,1,0,.24.16.16,0,0,1-.15.09.16.16,0,0,1-.09,0A9.52,9.52,0,0,1,116.3,13Zm7,9.94-.71,1.84a.17.17,0,0,1-.16.11h0a10.06,10.06,0,0,1-4-1.87.16.16,0,0,1,0-.24.17.17,0,0,1,.25,0,9.55,9.55,0,0,0,3.24,1.6.5.5,0,0,0,.61-.29l.48-1.26a.18.18,0,0,1,.23-.1A.17.17,0,0,1,123.26,22.94Z"/><path class="cls-1" d="M150.09,10l-.82-.41-.55.82-.25-.19.52-.77-.3-.15-.52.77-.3-.12.54-.79-.3-.15-.58.84-.33-.07.63-.92-.3-.15-.69,1-.35,0,.76-1.12-.3-.15-.84,1.24h-.37l.72-1.07-1,.74s-1.84-.08-4.21-.12V7.9a31.39,31.39,0,0,1,7.79.93l2.31-5-.65-.51-.68.79a1.17,1.17,0,0,0-.26-.17l.7-.81-.26-.21-.75.87-.32-.11.82-1-.26-.2-.92,1.06-.36-.06,1-1.2-.26-.2L148,3.5l-.38,0L148.93,2l-.26-.2-1.47,1.7a2.76,2.76,0,0,0-.42,0L148,2.05l-1.57,1.16s-2.3-.08-5.2-.11V1.64l.83-1L135.23,0l-1.64,1.33,1.65,1.32v.49a31.81,31.81,0,0,0-4.69.39l-.36-.38L128.88,4l-.39-.12,2.74-1.75-.11-.32-3,1.92-.33-.17L131,1.49l-.11-.32-3.43,2.18-.15-.12-.07-.11L130.8.86l-.09-.28-5.34,3.3.06,0,0,0,2.16,5,1.23-.17L126.67,10l2.15,5,1.22-.2-2.85,1.87,1.7,1.77a.31.31,0,0,1,.1.24l-.31,6.78h5.72V24.7c1.35-.13,2.59-.18,3.66-.19.13-.2,0-.4-.23-.5-1,0-2,.06-3.2.16h0a.18.18,0,0,1-.18-.16.18.18,0,0,1,.16-.19,39.08,39.08,0,0,1,7.25,0,.18.18,0,0,1,.15.2.17.17,0,0,1-.19.15c-.45-.05-1.57-.15-3.14-.16a.37.37,0,0,0-.23.5,31.87,31.87,0,0,1,3.57.19v.75h5.72l-.28-7,1.77-1.78-2.41-1.9,1,.25Zm-8.5-2.92a27.72,27.72,0,0,1,6,.64.19.19,0,0,1,.13.22.17.17,0,0,1-.17.13h0a27.64,27.64,0,0,0-5.93-.64.18.18,0,0,1-.18-.17A.19.19,0,0,1,141.59,7.12ZM127.94,8.21l-.08,0a.18.18,0,0,1-.16-.11L126,4.44a.17.17,0,1,1,.32-.14L128,8A.18.18,0,0,1,127.94,8.21Zm13.91,5.24a.18.18,0,0,1,.15.2.17.17,0,0,1-.19.15,38.32,38.32,0,0,0-7.18,0h0a.18.18,0,0,1-.18-.16.18.18,0,0,1,.16-.19A39.08,39.08,0,0,1,141.85,13.45ZM131.21,3.83a20.21,20.21,0,0,1,4-.21.16.16,0,0,1,.16.18.17.17,0,0,1-.18.17,19.43,19.43,0,0,0-4,.21h0a.17.17,0,0,1-.17-.14A.18.18,0,0,1,131.21,3.83Zm.09,3.74.19.25-2.68,1.71a1.88,1.88,0,0,1-.24-.22Zm-2,6.76-.07,0a.17.17,0,0,1-.16-.1l-1.66-3.69a.18.18,0,0,1,.08-.23.18.18,0,0,1,.24.09l1.66,3.68A.17.17,0,0,1,129.26,14.33Zm.17-4.43-.32-.17,1.43-.91.57-.38h0l.56-.36.19.25-.06,0c1-.11,2.19-.21,3.42-.29V9.29a16.79,16.79,0,0,0-3.95.48l-.78-.57ZM132,14l.19.25-2.65,1.69a2.74,2.74,0,0,1-.23-.22Zm-2.56,10.57a.18.18,0,0,1-.18.16h0a.16.16,0,0,1-.16-.18l.27-5.45a.18.18,0,0,1,.18-.17.18.18,0,0,1,.17.19Zm12.92-3.27h-8.08v-2a52,52,0,0,1,8.08,0Zm-.18-5.37h-7.94l-2.3-.75-1.8,1.15-.31-.18,2.54-1.62,0,0c3.57-.42,9.22-.81,13.82.13Zm4.69,1.89,1.06-.94a.16.16,0,0,1,.24,0,.18.18,0,0,1,0,.25l-1,.94a.19.19,0,0,1-.12,0,.16.16,0,0,1-.13-.06A.17.17,0,0,1,146.87,17.81Zm0,4.42a.17.17,0,0,1,.19.16l.21,2.4a.18.18,0,0,1,0,.14.19.19,0,0,1-.13.05l-1.81,0h0a.18.18,0,0,1-.18-.18.18.18,0,0,1,.17-.17l1.63,0-.2-2.21A.18.18,0,0,1,146.91,22.23Z"/><path class="cls-3" d="M144.43,31.51h2.11l.27.33H147s0,0,0,0l-.25-.3a.28.28,0,0,0,.21-.27V29.94a.27.27,0,0,0-.28-.28h-2.39a.27.27,0,0,0-.28.28v1.29a.28.28,0,0,0,.21.27l-.25.3s0,0,0,0h.17Zm-.25-1.57a.11.11,0,0,1,.11-.11h2.39a.11.11,0,0,1,.11.11v.21a.07.07,0,0,1-.07.07h-2.47a.07.07,0,0,1-.07-.07Zm.07.45h2.47a.07.07,0,0,1,.07.07v.24a.08.08,0,0,1-.07.08h-2.47a.08.08,0,0,1-.07-.08v-.24A.07.07,0,0,1,144.25,30.39Zm-.07.84V31a.07.07,0,0,1,.07-.07h2.47a.07.07,0,0,1,.07.07v.21a.11.11,0,0,1-.11.11h-2.39A.11.11,0,0,1,144.18,31.23Zm3.38.37v.1a0,0,0,0,0,0,0l1.28-.15v.22a0,0,0,0,0,0,0h.1s0,0,0,0v-3h.06a0,0,0,0,0,0,0v-.09a0,0,0,0,0,0,0H147.6a0,0,0,0,0,0,0v.09a0,0,0,0,0,0,0h.12v2.78l-.13,0A0,0,0,0,0,147.56,31.6Zm.41-2.83h.83a.09.09,0,0,1,.08.08v.61a.08.08,0,0,1-.08.08H148a.08.08,0,0,1-.08-.08v-.61A.09.09,0,0,1,148,28.77Zm0,.94h.83a.09.09,0,0,1,.08.08v.62a.09.09,0,0,1-.08.08H148a.09.09,0,0,1-.08-.08v-.62A.09.09,0,0,1,148,29.71Zm0,.95h.83a.08.08,0,0,1,.08.08v.6a.08.08,0,0,1-.07.08l-.83.1a.08.08,0,0,1-.09-.08v-.7A.08.08,0,0,1,148,30.66Zm2.53,4.58H150s0,0,0,0v.1a0,0,0,0,0,0,0h.51a.22.22,0,0,0,.22-.22V32.44a.22.22,0,0,0-.22-.22h-1a.22.22,0,0,0-.22.22v.89a.22.22,0,0,0,.22.22h1v1.64A.05.05,0,0,1,150.5,35.24Zm-1-2.8a.06.06,0,0,1,.05,0h1a.05.05,0,0,1,.05,0v.29a.07.07,0,0,1-.07.07h-.94a.08.08,0,0,1-.07-.07Zm.05.94a.05.05,0,0,1-.05-.05V33a.08.08,0,0,1,.07-.07h.94a.07.07,0,0,1,.07.07v.2a.14.14,0,0,1-.14.14Zm-5.34-3.92h2.61a.29.29,0,0,0,.28-.29v-.29a.29.29,0,0,0-.23-.28h-2.7a.28.28,0,0,0-.23.22v.41A.28.28,0,0,0,144.18,29.46Zm2-.69h.56a.11.11,0,0,1,.11.11v.29a.11.11,0,0,1-.11.11h-.56a.15.15,0,0,1-.15-.15v-.21A.15.15,0,0,1,146.23,28.77Zm-1,0h.51a.15.15,0,0,1,.15.15v.21a.15.15,0,0,1-.15.15h-.51a.16.16,0,0,1-.16-.15v-.21A.16.16,0,0,1,145.24,28.77Zm-1.17.11a.11.11,0,0,1,.11-.11h.58a.15.15,0,0,1,.15.15v.21a.15.15,0,0,1-.15.15h-.58a.11.11,0,0,1-.11-.11Zm3.76,3.34a.22.22,0,0,0-.22.22v3a0,0,0,0,0,0,0h.09a0,0,0,0,0,0,0V33.55h1a.22.22,0,0,0,.22-.22v-.89a.22.22,0,0,0-.22-.22Zm1,1.11a.05.05,0,0,1-.05.05h-.89a.14.14,0,0,1-.14-.14V33a.07.07,0,0,1,.07-.07h.94a.07.07,0,0,1,.07.07Zm0-.89v.29a.07.07,0,0,1-.07.07h-.94a.07.07,0,0,1-.07-.07v-.29a.05.05,0,0,1,.05,0h1A.06.06,0,0,1,148.86,32.44Zm-1.81.06v-.06a.06.06,0,0,0-.06-.06h-1.36a.09.09,0,0,1-.09-.08v0a.06.06,0,0,0-.06-.06h-.06a.06.06,0,0,0,0,.06v0a.09.09,0,0,1-.09.08H144a.06.06,0,0,0,0,.06v.06a.06.06,0,0,0,0,.06h1.33a.08.08,0,0,1,.09.08v.11a.13.13,0,0,1-.14.13h-1a.22.22,0,0,0-.22.22V34a.22.22,0,0,0,.22.22h2.28v.27a.09.09,0,0,1-.09.09H144a.06.06,0,0,0,0,.06v0s0,.06,0,.06h.31a.09.09,0,0,1,.08.06l.24.66a.07.07,0,0,0,0,0h.07a.06.06,0,0,0,.05-.08l-.21-.56a.09.09,0,0,1,.08-.12h1.8a.09.09,0,0,1,.09.09v.47a0,0,0,0,1,0,0h-.52v.16h.61a.23.23,0,0,0,.13-.2v-.47a.09.09,0,0,1,.09-.09H147a.06.06,0,0,0,.06-.06v0a.06.06,0,0,0-.06-.06h-.22a.09.09,0,0,1-.09-.09v-.27h.06A.22.22,0,0,0,147,34V33.1a.22.22,0,0,0-.22-.22h-1.07a.13.13,0,0,1-.13-.13v-.11a.08.08,0,0,1,.09-.08H147A.06.06,0,0,0,147.05,32.5ZM145.28,34h-1.05a0,0,0,0,1,0,0v-.22a.12.12,0,0,1,.12-.12h1a.09.09,0,0,1,.09.09v.21A.09.09,0,0,1,145.28,34Zm0-.56h-1a.12.12,0,0,1-.12-.12V33.1a.05.05,0,0,1,0-.05h1.05a.09.09,0,0,1,.09.09v.22A.09.09,0,0,1,145.28,33.44Zm1.51.51a0,0,0,0,1,0,0h-1.11a.09.09,0,0,1-.09-.09V33.7a.09.09,0,0,1,.09-.09h1a.12.12,0,0,1,.12.12Zm0-.9a.05.05,0,0,1,0,.05v.22a.12.12,0,0,1-.12.12h-1a.09.09,0,0,1-.09-.08v-.22a.09.09,0,0,1,.09-.09Zm2.44-1.21Zm1.52-.31a.09.09,0,0,1,0,0v.26h0l-.66-1-.62.91a0,0,0,0,1,0,0v-.23a.08.08,0,0,1,0,0l.54-.78-.54-.79a.06.06,0,0,1,0,0v-.21a0,0,0,0,1,0,0l.61.9.44-.63a.3.3,0,0,0,.05-.16v-.93a.09.09,0,0,0-.09-.08h-1a0,0,0,0,1,0,0v-.09a0,0,0,0,1,0,0h1.06a.26.26,0,0,1,.21.25v.93a.5.5,0,0,1-.08.26l-.47.69ZM151,36h-7.39a.31.31,0,0,1-.31-.31V28.28a.31.31,0,0,1,.31-.31H151a.31.31,0,0,1,.31.31v7.39A.31.31,0,0,1,151,36Zm-7.39-7.85a.16.16,0,0,0-.16.15v7.39a.16.16,0,0,0,.16.16H151a.16.16,0,0,0,.16-.16V28.28a.16.16,0,0,0-.16-.15Z"/></g></g></svg>