<svg xmlns="http://www.w3.org/2000/svg" viewBox="0 0 175.44 16.83"><g id="Layer_2" data-name="Layer 2"><g id="レイヤー_1" data-name="レイヤー 1"><path d="M5.73,3.76H8.52v2H5.73v.59c.68.69,2.35,2.74,2.71,3.24L7.15,11.45c-.33-.63-.87-1.51-1.42-2.34v7.72H3.6V9.67A16.23,16.23,0,0,1,1.13,14,11,11,0,0,0,0,11.9,16.52,16.52,0,0,0,3.31,5.8H.54v-2H3.6V0H5.73Zm8.46,10.66c.74,0,.86-.66,1-3.31a5.53,5.53,0,0,0,1.93.92c-.24,3.17-.76,4.32-2.74,4.32H11.76c-2.13,0-2.7-.74-2.7-3.15V.2H11.2v13c0,1,.11,1.2.83,1.2Z"/><path d="M26,10.93a2,2,0,0,1-.46,1.57,2.12,2.12,0,0,1-1.4.34,4.9,4.9,0,0,0-.49-1.78h.69c.11,0,.14,0,.14-.18V5.17h-.83V16.78h-1.8V5.17h-.79v7.88H19.51V3.28h2.34V0h1.8V3.28H26Zm8.17,4a.8.8,0,0,0,.29,0,.78.78,0,0,0,.18-.4c0-.23,0-.76,0-1.44a5.27,5.27,0,0,0,1.55.85A8.56,8.56,0,0,1,36,15.75a1.36,1.36,0,0,1-.67.72,2.45,2.45,0,0,1-1.06.22h-1a1.85,1.85,0,0,1-1.29-.45c-.33-.3-.47-.7-.47-1.85V11.72H30.24c-.21,2.59-1,4.22-4,5.11a5.14,5.14,0,0,0-1.08-1.6c2.45-.61,3-1.65,3.17-3.51H26.26V9.92H30V6.57H26.7v-6h8.66v6H32V9.92h3.78v1.8H33.52v2.72a.76.76,0,0,0,.07.43.26.26,0,0,0,.22.09Zm-6-8.15a11.42,11.42,0,0,1,1.14,2.43l-1.68.64a11.79,11.79,0,0,0-1-2.53Zm.38-3.93h4.81V2H28.57Zm0,2.25h4.81v-.9H28.57Zm4,4.2a15.69,15.69,0,0,0,1.2-2.6l1.8.58c-.46,1-1,1.91-1.4,2.57Z"/><path d="M47.65,3.49V4.84h6.1v9.78c0,1.05-.25,1.53-1,1.84a9.62,9.62,0,0,1-3.22.3,8,8,0,0,0-.7-1.82c.88.06,2,.06,2.28,0s.42-.09.42-.38V6.81H44.86a10.19,10.19,0,0,1,1,1.92l-1.37.45h2.72l-.13,0a12.37,12.37,0,0,0,1.1-2.33l1.8.51c-.38.66-.74,1.31-1.08,1.85h1.55v1.68h-3V12h3.43v1.71H47.42v2.55h-2V13.74H42.08V12H45.4V10.86H42.45V9.18H44a12.24,12.24,0,0,0-.88-1.89l1.64-.48H41.35v10H39.19V4.84h6.12V3.49H38.5v-2h6.81V.13h2.34V1.49h6.77v2Z"/><path d="M73.88,1.64c-.51,1.74-1.15,3.85-1.71,5.42a6.74,6.74,0,0,1,1.4,4.19,3.11,3.11,0,0,1-.83,2.58,2.09,2.09,0,0,1-1.08.43,10.75,10.75,0,0,1-1.17,0,4.39,4.39,0,0,0-.43-1.87h.79a.78.78,0,0,0,.53-.18c.23-.18.32-.63.32-1.26a6.2,6.2,0,0,0-1.35-3.74c.4-1.3.86-3.15,1.19-4.52H70V16.8H68.17V15.45L66.58,16c0-.45-.14-1-.26-1.53-1.43.53-2.85,1.05-4.06,1.46l-.63-2,.89-.22V10.19A10.36,10.36,0,0,1,58,16.76a8.57,8.57,0,0,0-1.17-1.58,7.62,7.62,0,0,0,3.32-3.84l-2.92.49-.49-2,.83-.07c.49-.72,1-1.57,1.51-2.49A19.22,19.22,0,0,0,56.81,5l.86-1.66c.15.11.31.24.45.36A26,26,0,0,0,59.54,0l1.93.61C60.81,2,60,3.6,59.37,4.77c.25.25.48.49.68.72.32-.66.61-1.31.85-1.89l1.62.61V.88h5V9H64.32v4.3l1.53-.43A20.51,20.51,0,0,0,65,10.55L66.73,10a24.93,24.93,0,0,1,1.44,4.09V.86h4l.3-.09ZM62.52,7.81V4.57c-.9,1.66-2,3.53-3,5l1.26-.13c.12-.56.23-1.17.3-1.8Zm1.8-5.13V4.05h1.46V2.68Zm1.46,4.49V5.74H64.32V7.17Z"/><path d="M80.23,12.73c.7,1.21,1.94,1.71,3.78,1.78,2.14.09,6.41,0,8.87-.16a8.8,8.8,0,0,0-.66,2.09c-2.22.11-6,.14-8.23,0s-3.58-.61-4.66-2c-.83.71-1.68,1.41-2.69,2.17l-1-2.15a21.93,21.93,0,0,0,2.52-1.64V9H75.89V7h4.34Zm-1.06-8a14.78,14.78,0,0,0-3-2.93L77.63.38a15.41,15.41,0,0,1,3.14,2.77Zm4.6,9.09h-2V4.5h4c-.81-.38-1.67-.74-2.41-1l1.38-1.15c.63.24,1.39.52,2.13.85a16.37,16.37,0,0,0,1.44-1H81.92V.59h8.26l.42-.1,1.28,1a20.3,20.3,0,0,1-3.21,2.43c.4.2.78.38,1.08.56h2.18v7.42c0,.86-.16,1.31-.74,1.6a5.34,5.34,0,0,1-2.43.31,6,6,0,0,0-.52-1.68c.56,0,1.19,0,1.37,0s.27-.09.27-.27v-.83H87.75V13.7H85.84V11.07H83.77Zm0-7.72V7h2.07v-1Zm2.07,3.48v-1H83.77v1Zm4-3.48H87.75V7h2.13Zm0,3.48v-1H87.75v1Z"/><path d="M102.53,15.57H99.79V5.23a9.66,9.66,0,0,1-3.55,2.08V4.82a7.91,7.91,0,0,0,2.33-1.34,5,5,0,0,0,1.73-2.29h2.23Z"/><path d="M107.53,11.77l2.66-.32a2.51,2.51,0,0,0,.68,1.55,1.93,1.93,0,0,0,2.78-.11,2.49,2.49,0,0,0,.58-1.74,2.34,2.34,0,0,0-.55-1.64,1.81,1.81,0,0,0-1.36-.6,5.07,5.07,0,0,0-1.26.2l.3-2.23a2.37,2.37,0,0,0,1.7-.49A1.71,1.71,0,0,0,113.65,5a1.59,1.59,0,0,0-.43-1.15,1.55,1.55,0,0,0-1.15-.43,1.66,1.66,0,0,0-1.2.49,2.28,2.28,0,0,0-.6,1.42l-2.53-.43a5.67,5.67,0,0,1,.79-2.07A3.54,3.54,0,0,1,110,1.64a4.89,4.89,0,0,1,2.13-.45,4.24,4.24,0,0,1,3.24,1.29,3.35,3.35,0,0,1,1,2.39,3.38,3.38,0,0,1-2.06,3,3.36,3.36,0,0,1,2,1.18,3.47,3.47,0,0,1,.73,2.22,4.27,4.27,0,0,1-1.37,3.21,5.15,5.15,0,0,1-6.65.22A4.46,4.46,0,0,1,107.53,11.77Z"/><path d="M137.42,3.6h-6.19V13.77c0,1.48-.36,2.13-1.34,2.51a13.71,13.71,0,0,1-4.41.43,9.8,9.8,0,0,0-1-2.52c1.46.07,3.13.09,3.6.07s.63-.13.63-.52V3.6h-7.26V1.37h16Z"/><path d="M154.65,1V16.62h-2.27V15.5H144v1.12h-2.16V1ZM144,3.06V5.13h8.34V3.06Zm0,4.09V9.27h8.34V7.15Zm8.34,6.26V11.29H144v2.12Z"/><path d="M175.44,2.09v2H162.38V6.63c0,2.9-.27,7.34-1.89,10.15a10.53,10.53,0,0,0-1.85-1.21c1.47-2.57,1.6-6.35,1.6-8.94V2.09h6.41V0h2.23V2.09Zm-5.86,4h5.62V8h-5.62v2h4.56V16.8h-2.2v-.65h-6.39v.67h-2.09V9.94h3.95V4.39h2.17Zm2.36,5.74h-6.39v2.45h6.39Z"/></g></g></svg>