<svg xmlns="http://www.w3.org/2000/svg" viewBox="0 0 1200 630"><defs><style>.cls-1{fill:#1e257d;}.cls-2{fill:#231815;}.cls-3{fill:#fff;}.cls-4{fill:#d1d4eb;}.cls-5{fill:#e50012;}</style></defs><g id="Layer_2" data-name="Layer 2"><g id="レイヤー_1" data-name="レイヤー 1"><rect class="cls-1" width="1200" height="630"/><path class="cls-1" d="M367.19,335.49c4.41,0,6,3.35,6,6.1,0,3.05-1.8,6.13-5.68,6.13h-6.08c.9-.6.95-1.76.95-2.78V338.3c0-1.63-.12-2.13-.95-2.81Zm-1.13,9.2h.85c1.75,0,2.34-1.35,2.34-2.93,0-2-.83-3.1-2.29-3.1h-.9Z"/><path class="cls-1" d="M382.7,335.49c-.28.32-.36.45-.36.68a2.06,2.06,0,0,0,.14.64l2.8,8.61a4.69,4.69,0,0,0,1.46,2.3h-5a.73.73,0,0,0,.32-.62,1.84,1.84,0,0,0-.06-.48l-.44-1.58h-3.71l-.46,1.54a2.08,2.08,0,0,0-.11.54.8.8,0,0,0,.31.6h-5.05a3.73,3.73,0,0,0,1.31-2l3.17-8.95a1.35,1.35,0,0,0,.11-.59.86.86,0,0,0-.37-.68Zm-1.89,6.86c-.4-1.12-.73-2.27-1-3.41-.38,1.2-.74,2.29-1.09,3.41Z"/><path class="cls-1" d="M388.06,338.39c0-1.53-.15-2.27-.93-2.9h5.73c-.81.47-1.05,1-1.05,3.19V344c0,2,.08,3,.95,3.74h-5.62c.82-.6.92-1.88.92-3Z"/><path class="cls-1" d="M397.91,341l2.27-3.83a2.11,2.11,0,0,0,.37-1,.92.92,0,0,0-.23-.61h5.32a7.52,7.52,0,0,0-2,2.17l-2.13,3.12,1.35,2.41c1.87,3.32,2.27,3.86,3.07,4.53h-5c-1-2-2.05-4.17-3-6.2v2c0,3,.11,3.31.82,4.19h-5.65c.76-.32,1.07-1.05,1.07-3.88v-4.71c0-2.08-.12-2.91-.9-3.64h5.51c-.64.63-.85,1-.85,3.9Z"/><path class="cls-1" d="M407,338.39c0-1.53-.15-2.27-.93-2.9h5.73c-.81.47-1.06,1-1.06,3.19V344c0,2,.09,3,1,3.74h-5.62c.82-.6.92-1.88.92-3Z"/><path class="cls-1" d="M421.33,340.15a3.16,3.16,0,0,0-2.59-1.17,2.56,2.56,0,0,0-2.66,2.58c0,1.71,1.36,2.7,3.12,2.7a3,3,0,0,0,2.45-1.13l-.33,4.82a1,1,0,0,0-.7-.21c-.55,0-1.07.21-2.4.21a6.24,6.24,0,0,1-6.19-6.48,6,6,0,0,1,6.17-6.24c1,0,1.33.16,2,.16a1.55,1.55,0,0,0,1-.3Z"/><path class="cls-1" d="M423.23,338.14c0-1.23-.11-2.16-.87-2.65H428c-.89.42-1,1.53-1,3V340h3v-1.85c0-1.37-.13-2.06-.83-2.62h5.53c-.85.56-.88,1.77-.88,2.67V345c0,1.59.24,2.11.86,2.68h-5.59c.52-.34.91-.6.91-2.84v-1.83h-3v2c0,1.56.21,2.13.79,2.68h-5.44c.7-.45.89-1.17.89-3.81Z"/><path class="cls-1" d="M436.1,338.39c0-1.53-.16-2.27-.94-2.9h5.74c-.82.47-1.06,1-1.06,3.19V344c0,2,.09,3,1,3.74h-5.61c.81-.6.92-1.88.92-3Z"/><path class="cls-2" d="M286.14,341l2.27-3.83a2.1,2.1,0,0,0,.36-1,1,1,0,0,0-.22-.61h5.31a7.5,7.5,0,0,0-1.95,2.17l-2.13,3.12,1.35,2.41c1.87,3.32,2.27,3.86,3.06,4.53h-5c-1-2-2-4.17-3-6.2v2c0,3,.1,3.31.81,4.19H281.3c.77-.32,1.08-1.05,1.08-3.88v-4.71c0-2.08-.12-2.91-.9-3.64H287c-.64.63-.85,1-.85,3.9Z"/><path class="cls-2" d="M304.34,335.49c-.27.32-.36.45-.36.68a2.06,2.06,0,0,0,.14.64l2.81,8.61a4.6,4.6,0,0,0,1.45,2.3h-5a.74.74,0,0,0,.33-.62,1.59,1.59,0,0,0-.07-.48l-.43-1.58h-3.71l-.47,1.54a2.05,2.05,0,0,0-.1.54.77.77,0,0,0,.31.6h-5.06a3.79,3.79,0,0,0,1.32-2l3.17-8.95a1.47,1.47,0,0,0,.1-.59.89.89,0,0,0-.36-.68Zm-1.88,6.86c-.4-1.12-.73-2.27-1-3.41-.38,1.2-.75,2.29-1.1,3.41Z"/><path class="cls-2" d="M309.71,338.39c0-1.53-.16-2.27-.94-2.9h5.73c-.81.47-1.05,1-1.05,3.19V344c0,2,.08,3,.95,3.74h-5.61c.81-.6.92-1.88.92-3Z"/><path class="cls-2" d="M325,335.49c.14,1.35.3,2.72.47,4.09-.66-1-1.61-1.18-3.6-1.23v5.91c0,2.18.07,2.63.83,3.45h-5.6c.85-.47,1-1.23,1-3.45v-5.91c-1.35,0-2.84.09-3.67,1.21.2-1.36.41-2.73.55-4.07Z"/><path class="cls-2" d="M331.48,335.27c3.45,0,5.81,2.35,5.81,6.29,0,3.67-2.22,6.39-5.67,6.39s-5.71-2.82-5.73-6.38C325.89,338.72,327.43,335.27,331.48,335.27Zm.09,9.09c1.21,0,1.85-1.12,1.85-2.87,0-1.09-.36-2.72-1.85-2.72-1.06,0-1.84.79-1.84,2.68S330.34,344.36,331.57,344.36Z"/><path class="cls-2" d="M348.24,345.59a9.41,9.41,0,0,0,1.61,2.13h-4.61c-.85-1.73-1.82-3.51-2.86-5.24v2.71c0,1.72.43,2.1.87,2.53h-5.62c.59-.31,1-.81,1-2.94v-5.53c0-2.53-.15-3-.88-3.76h6.43c1.94,0,4.12.85,4.12,3.43,0,1.74-.69,2.78-2.34,3Zm-5.88-5.09H343c.79,0,1.44-.29,1.44-1.28s-.77-1.18-1.72-1.18h-.4Z"/><path class="cls-2" d="M351,338.39c0-1.53-.16-2.27-.94-2.9h5.74c-.82.47-1.06,1-1.06,3.19V344c0,2,.09,3,1,3.74h-5.61c.82-.6.92-1.88.92-3Z"/><path class="cls-3" d="M367.19,335.49c4.41,0,6,3.35,6,6.1,0,3.05-1.8,6.13-5.68,6.13h-6.08c.9-.6.95-1.76.95-2.78V338.3c0-1.63-.12-2.13-.95-2.81Zm-1.13,9.2h.85c1.75,0,2.34-1.35,2.34-2.93,0-2-.83-3.1-2.29-3.1h-.9Z"/><path class="cls-3" d="M382.7,335.49c-.28.32-.36.45-.36.68a2.06,2.06,0,0,0,.14.64l2.8,8.61a4.69,4.69,0,0,0,1.46,2.3h-5a.73.73,0,0,0,.32-.62,1.84,1.84,0,0,0-.06-.48l-.44-1.58h-3.71l-.46,1.54a2.08,2.08,0,0,0-.11.54.8.8,0,0,0,.31.6h-5.05a3.73,3.73,0,0,0,1.31-2l3.17-8.95a1.35,1.35,0,0,0,.11-.59.86.86,0,0,0-.37-.68Zm-1.89,6.86c-.4-1.12-.73-2.27-1-3.41-.38,1.2-.74,2.29-1.09,3.41Z"/><path class="cls-3" d="M388.06,338.39c0-1.53-.15-2.27-.93-2.9h5.73c-.81.47-1.05,1-1.05,3.19V344c0,2,.08,3,.95,3.74h-5.62c.82-.6.92-1.88.92-3Z"/><path class="cls-3" d="M397.91,341l2.27-3.83a2.11,2.11,0,0,0,.37-1,.92.92,0,0,0-.23-.61h5.32a7.52,7.52,0,0,0-2,2.17l-2.13,3.12,1.35,2.41c1.87,3.32,2.27,3.86,3.07,4.53h-5c-1-2-2.05-4.17-3-6.2v2c0,3,.11,3.31.82,4.19h-5.65c.76-.32,1.07-1.05,1.07-3.88v-4.71c0-2.08-.12-2.91-.9-3.64h5.51c-.64.63-.85,1-.85,3.9Z"/><path class="cls-3" d="M407,338.39c0-1.53-.15-2.27-.93-2.9h5.73c-.81.47-1.06,1-1.06,3.19V344c0,2,.09,3,1,3.74h-5.62c.82-.6.92-1.88.92-3Z"/><path class="cls-3" d="M421.33,340.15a3.16,3.16,0,0,0-2.59-1.17,2.56,2.56,0,0,0-2.66,2.58c0,1.71,1.36,2.7,3.12,2.7a3,3,0,0,0,2.45-1.13l-.33,4.82a1,1,0,0,0-.7-.21c-.55,0-1.07.21-2.4.21a6.24,6.24,0,0,1-6.19-6.48,6,6,0,0,1,6.17-6.24c1,0,1.33.16,2,.16a1.55,1.55,0,0,0,1-.3Z"/><path class="cls-3" d="M423.23,338.14c0-1.23-.11-2.16-.87-2.65H428c-.89.42-1,1.53-1,3V340h3v-1.85c0-1.37-.13-2.06-.83-2.62h5.53c-.85.56-.88,1.77-.88,2.67V345c0,1.59.24,2.11.86,2.68h-5.59c.52-.34.91-.6.91-2.84v-1.83h-3v2c0,1.56.21,2.13.79,2.68h-5.44c.7-.45.89-1.17.89-3.81Z"/><path class="cls-3" d="M436.1,338.39c0-1.53-.16-2.27-.94-2.9h5.74c-.82.47-1.06,1-1.06,3.19V344c0,2,.09,3,1,3.74h-5.61c.81-.6.92-1.88.92-3Z"/><path class="cls-3" d="M286.14,341l2.27-3.83a2.1,2.1,0,0,0,.36-1,1,1,0,0,0-.22-.61h5.31a7.5,7.5,0,0,0-1.95,2.17l-2.13,3.12,1.35,2.41c1.87,3.32,2.27,3.86,3.06,4.53h-5c-1-2-2-4.17-3-6.2v2c0,3,.1,3.31.81,4.19H281.3c.77-.32,1.08-1.05,1.08-3.88v-4.71c0-2.08-.12-2.91-.9-3.64H287c-.64.63-.85,1-.85,3.9Z"/><path class="cls-3" d="M304.34,335.49c-.27.32-.36.45-.36.68a2.06,2.06,0,0,0,.14.64l2.81,8.61a4.6,4.6,0,0,0,1.45,2.3h-5a.74.74,0,0,0,.33-.62,1.59,1.59,0,0,0-.07-.48l-.43-1.58h-3.71l-.47,1.54a2.05,2.05,0,0,0-.1.54.77.77,0,0,0,.31.6h-5.06a3.79,3.79,0,0,0,1.32-2l3.17-8.95a1.47,1.47,0,0,0,.1-.59.89.89,0,0,0-.36-.68Zm-1.88,6.86c-.4-1.12-.73-2.27-1-3.41-.38,1.2-.75,2.29-1.1,3.41Z"/><path class="cls-3" d="M309.71,338.39c0-1.53-.16-2.27-.94-2.9h5.73c-.81.47-1.05,1-1.05,3.19V344c0,2,.08,3,.95,3.74h-5.61c.81-.6.92-1.88.92-3Z"/><path class="cls-3" d="M325,335.49c.14,1.35.3,2.72.47,4.09-.66-1-1.61-1.18-3.6-1.23v5.91c0,2.18.07,2.63.83,3.45h-5.6c.85-.47,1-1.23,1-3.45v-5.91c-1.35,0-2.84.09-3.67,1.21.2-1.36.41-2.73.55-4.07Z"/><path class="cls-3" d="M331.48,335.27c3.45,0,5.81,2.35,5.81,6.29,0,3.67-2.22,6.39-5.67,6.39s-5.71-2.82-5.73-6.38C325.89,338.72,327.43,335.27,331.48,335.27Zm.09,9.09c1.21,0,1.85-1.12,1.85-2.87,0-1.09-.36-2.72-1.85-2.72-1.06,0-1.84.79-1.84,2.68S330.34,344.36,331.57,344.36Z"/><path class="cls-3" d="M348.24,345.59a9.41,9.41,0,0,0,1.61,2.13h-4.61c-.85-1.73-1.82-3.51-2.86-5.24v2.71c0,1.72.43,2.1.87,2.53h-5.62c.59-.31,1-.81,1-2.94v-5.53c0-2.53-.15-3-.88-3.76h6.43c1.94,0,4.12.85,4.12,3.43,0,1.74-.69,2.78-2.34,3Zm-5.88-5.09H343c.79,0,1.44-.29,1.44-1.28s-.77-1.18-1.72-1.18h-.4Z"/><path class="cls-3" d="M351,338.39c0-1.53-.16-2.27-.94-2.9h5.74c-.82.47-1.06,1-1.06,3.19V344c0,2,.09,3,1,3.74h-5.61c.82-.6.92-1.88.92-3Z"/><path class="cls-3" d="M262.82,294l12.08,20.92a8.17,8.17,0,0,1,0,8.2l-12.08,20.92a8.19,8.19,0,0,1-7.1,4.1H231.56a8.19,8.19,0,0,1-7.1-4.1l-12.08-20.92a8.17,8.17,0,0,1,0-8.2L224.46,294a8.19,8.19,0,0,1,7.1-4.1h24.16A8.19,8.19,0,0,1,262.82,294ZM248,324.17a1.48,1.48,0,0,0,1.48-1.48V314a1.49,1.49,0,0,0-1.48-1.48H239.3a1.49,1.49,0,0,0-1.49,1.48v8.69a1.49,1.49,0,0,0,1.49,1.48Z"/><path class="cls-4" d="M312.55,292.14H290.44l-7.12-1.9-3.2,2.54,4.28,3.07v7.49l18.28-.6,17,.3.19-7.26,2.12-2.71-4.9-2.88Zm-17.11,7.56h-3.79v-2.89h3.79Zm8.6,0h-3.79v-2.89H304Zm7.91,0h-3.8v-2.89H312Z"/><path class="cls-4" d="M317.69,309.5l3.56-2.67-5.39-3.21-3.76,1.21H289.82l-5.2-.84-1.55,2.51,2.93,2.3V325h5.3c-4,1.62-10,1.48-10,1.48l5.46,6.74c5.59-1.33,10.77-7.1,10.77-7.1l-3.5-1.38V324h15.45V325h.17l-4.57,1.8s6,6.91,10.76,6.42l5.25-6.28s-7.35.39-11.16-1.94h7.76Zm-8.21-.51v2.17H294V309ZM294,314h15.45v2.17H294Zm0,7.16V319h15.45v2.18Z"/><path class="cls-4" d="M364.25,302.68l2.66-7.42.39-1.2-4.09-3.66-3.64,3.38a61.15,61.15,0,0,0-10.35-.66,158.12,158.12,0,0,0-17.81.94L327,290.68l-3.52,4,.2.58,3.12,6.86a22.39,22.39,0,0,1,3.47-.64V322h-1.78L326,319.6l-1.95,3.95,3.85,8.09,7.33-3.63,4.6-1.26H340v5.31h6V326l1-.27L350,331.9a66.53,66.53,0,0,0,6.07-5.32c.14.14.29.27.44.4a56.3,56.3,0,0,0,6.51,5.13h1.61l1.62-8.48.34-3.86-.95-.26-2.05,3.4a12.45,12.45,0,0,1-3-1.23l-.06-.05a26.24,26.24,0,0,0,5.31-10.11H366l.62-2.62-3.64-4.71-12.42,1.15-1.77-2.53-2.51,2.92.72,6.1.83,1.92,1.59-.3a37.63,37.63,0,0,0,2.93,7.85,29.65,29.65,0,0,1-3.85,2.88l.14-5H346V301.32C355.37,301.73,364.25,302.68,364.25,302.68Zm-24.83,17.09-4.18.53v-4h4.18Zm0-7.94h-4.18v-3.12h4.18Zm0-7.64h-4.18v-3c1.33,0,2.74,0,4.18,0Zm15.05,7.51,3.79-.06a14,14,0,0,1-1.91,4.9,23.48,23.48,0,0,1-1.88-4.07Z"/><path class="cls-3" d="M414.56,315.62l-1.92,4.9-.52,0,2-5-.49-.18-.3.71-1.74,4.45-.53-.06,1.22-3.09-.66.21-1.11,2.81-.51-.08,1-2.54-.67.21-.87,2.24-.5-.11.75-1.93-.66.21-.62,1.59-.49-.14.53-1.35a16.83,16.83,0,0,1-9.08-9.7,58.22,58.22,0,0,1,10.22,1.88l4.16-9.44-3.68-3.34-5.87,2.06s-2.54-.4-6.48-.59a29.93,29.93,0,0,1,.38-5.18l.87-.85-7-1.66v0l-4.65-1.14-.91,1.51-1.18-.87-.65.28,2.58,2.36.11.79-3.2-2.94-.55.23,3.87,3.55.11.79L383,292l-.75.31,5.07,4.53h0l0,0,.11,2.55a62.29,62.29,0,0,0-8.09,1.16L377.83,299l1.73-1.21-.79-2.26L370.64,301h0l-.09.05,3.77,10.22A59.12,59.12,0,0,1,387,308.74c-2.56,5.86-9.29,9.77-12.15,11.22l-.65,0,2.24-1.5,0-.61L374,319.45l-.63-.18,3-2,0-.63-3.62,2.48-.63-.18,4.22-2.89,0-.7-5.66,3.7,1.26,3.08,1.74-.64q.06.23.15.48l-1.69.63.2.5,1.65-.61.18.47-1.64.61.21.5,1.62-.6c.07.15.13.3.2.46l-1.63.61.2.5,1.66-.62.23.46-1.69.62.2.5,1.75-.65.27.44-1.83.68.21.5,1.93-.71.31.42-2.05.76.2.5,2.21-.82c.11.14.24.27.36.41l-2.37.88.2.5,2.6-1c.15.13.29.26.45.38l-2.86,1.05.21.5,3.19-1.18a5.3,5.3,0,0,0,.57.33l-3.57,1.32.21.5,4.06-1.51a5.54,5.54,0,0,0,.82.24l-4.69,1.74.24.59a20.15,20.15,0,0,0,12.55-8.62c-.1-.45-.45-.39-.8-.21a22.25,22.25,0,0,1-4.77,5,.27.27,0,0,1-.17.06.3.3,0,0,1-.23-.11.29.29,0,0,1,.06-.4c5.76-4.3,8.26-11.72,8.28-11.8a.28.28,0,1,1,.54.18,28.76,28.76,0,0,1-2.94,5.92c-.12.77.36.79.4.79a32.14,32.14,0,0,0,3.89-9v.18c1.59,13.71,17,17.23,17,17.23l3.27-9.61h0l2.1-5.65Zm-4.11-10.12,1.64-3.65a.73.73,0,0,0-.15-.83l-1.32-1.31a.28.28,0,0,1,.4-.4l1.46,1.45a1,1,0,0,1,.21,1.15L411,305.73a.27.27,0,0,1-.26.17.23.23,0,0,1-.11,0A.28.28,0,0,1,410.45,305.5ZM384,308.41a25.24,25.24,0,0,0-7.9,1.42l-.1,0a.29.29,0,0,1-.27-.18.29.29,0,0,1,.17-.37,25.46,25.46,0,0,1,8.1-1.46.29.29,0,1,1,0,.57Zm13.28-14.58a.29.29,0,0,1-.28.22H397l-8.16-1.91a.29.29,0,0,1,.13-.56l8.16,1.91A.3.3,0,0,1,397.32,293.83Zm.42,6.75a.28.28,0,0,1-.29-.28.29.29,0,0,1,.27-.29,28,28,0,0,1,6.21.56.29.29,0,0,1,.2.35.29.29,0,0,1-.28.21h-.07A27.73,27.73,0,0,0,397.74,300.58Zm1.54,10.27a.29.29,0,0,1,.55-.16s1.34,4.18,6.63,7.41a.28.28,0,0,1,.1.39.29.29,0,0,1-.25.13.23.23,0,0,1-.14,0C400.68,315.24,399.34,311,399.28,310.85ZM410.58,327l-1.16,3a.28.28,0,0,1-.26.18h-.08c-4.56-1.29-6.39-3-6.46-3a.29.29,0,1,1,.39-.42,15,15,0,0,0,5.25,2.61.8.8,0,0,0,1-.47l.79-2.05a.29.29,0,0,1,.37-.17A.3.3,0,0,1,410.58,327Z"/><path class="cls-3" d="M454.11,306.06l-1.32-.67-.91,1.32a2.46,2.46,0,0,0-.4-.3l.85-1.25-.48-.24-.85,1.24a4.09,4.09,0,0,0-.49-.18l.88-1.29-.49-.25-.94,1.38-.53-.12,1-1.49L450,304l-1.12,1.64c-.19,0-.39-.05-.57-.06l1.24-1.81-.49-.25-1.37,2-.6,0,1.18-1.73-1.64,1.2s-3-.13-6.84-.19v-2.17a50.14,50.14,0,0,1,12.65,1.51l3.74-8.08-1.05-.83-1.1,1.27a3.55,3.55,0,0,0-.43-.28l1.13-1.3-.42-.34L453.05,296a4.4,4.4,0,0,0-.51-.18l1.33-1.54-.42-.34-1.5,1.73-.58-.1,1.68-1.94-.43-.33-1.89,2.19-.62-.06,2.12-2.45-.43-.33-2.38,2.75h-.67l2-2.26L448.16,295s-3.73-.13-8.43-.18v-2.36l1.34-1.62L430,289.76l-2.66,2.16,2.67,2.15v.79a52.66,52.66,0,0,0-7.62.62l-.57-.61-2.13,1.36c-.23-.06-.45-.12-.64-.19l4.44-2.83-.18-.53-4.88,3.11-.53-.26,5.25-3.34-.18-.53-5.57,3.54-.24-.19-.11-.18,5.76-3.67-.16-.46L414,296.07l.11,0-.06,0,3.52,8.06s.73-.12,2-.28L416.1,306l3.5,8.07s.72-.13,2-.32l-4.62,3,2.77,2.87a.56.56,0,0,1,.15.39l-.5,11h9.28v-1.21c2.19-.21,4.2-.3,5.94-.31.21-.32,0-.66-.38-.82-1.55,0-3.29.1-5.18.27h0a.28.28,0,0,1-.28-.26.3.3,0,0,1,.26-.31,62.93,62.93,0,0,1,11.76,0,.29.29,0,0,1,.25.32.29.29,0,0,1-.31.25c-.73-.08-2.55-.25-5.09-.27-.53.27-.45.66-.38.82a49.49,49.49,0,0,1,5.79.31v1.21h9.28l-.46-11.38,2.88-2.88-3.91-3.08c.53.12,1,.26,1.56.41Zm-13.78-4.74a44.93,44.93,0,0,1,9.76,1,.29.29,0,0,1,.21.35.28.28,0,0,1-.28.21H450a44.06,44.06,0,0,0-9.62-1,.28.28,0,0,1-.29-.28A.29.29,0,0,1,440.33,301.32Zm-22.17,1.77a.23.23,0,0,1-.11,0,.28.28,0,0,1-.26-.16l-2.7-6a.29.29,0,0,1,.15-.38.28.28,0,0,1,.37.15l2.69,6A.28.28,0,0,1,418.16,303.09Zm22.58,8.5a.29.29,0,0,1,.25.32.29.29,0,0,1-.31.25,60.85,60.85,0,0,0-11.65,0h0a.28.28,0,0,1-.28-.26.3.3,0,0,1,.26-.31A62.93,62.93,0,0,1,440.74,311.59ZM423.48,296a31.18,31.18,0,0,1,6.57-.36.29.29,0,0,1,.27.3.29.29,0,0,1-.31.27,30.24,30.24,0,0,0-6.43.35h-.05a.28.28,0,0,1-.28-.23A.27.27,0,0,1,423.48,296Zm.15,6.06.31.4-4.36,2.77a4.24,4.24,0,0,1-.39-.34Zm-3.32,11a.27.27,0,0,1-.12,0,.28.28,0,0,1-.26-.17l-2.69-6a.28.28,0,0,1,.14-.38.3.3,0,0,1,.38.14l2.69,6A.28.28,0,0,1,420.31,313Zm.28-7.2c-.19-.09-.37-.18-.52-.27l2.32-1.48.93-.61h0l.9-.58.31.41-.08,0c1.66-.17,3.54-.33,5.55-.47v2a27.25,27.25,0,0,0-6.41.78l-1.26-.93Zm4.18,6.65.3.41-4.3,2.74a1.84,1.84,0,0,1-.37-.37Zm-4.17,17.14a.29.29,0,0,1-.29.27h0a.28.28,0,0,1-.27-.3l.44-8.84a.29.29,0,0,1,.3-.27.28.28,0,0,1,.27.3Zm21-5.3H428.45V321s8.48-.65,13.12,0Zm-.3-8.72H428.38l-3.72-1.22-2.92,1.87c-.19-.1-.36-.19-.5-.28l4.13-2.63-.08-.06c5.8-.68,15-1.3,22.43.21Zm7.62,3.07,1.71-1.53a.29.29,0,0,1,.4,0,.29.29,0,0,1,0,.41l-1.71,1.52a.27.27,0,0,1-.19.08.32.32,0,0,1-.21-.1A.29.29,0,0,1,448.89,318.66Zm.06,7.18a.28.28,0,0,1,.31.26l.35,3.9a.29.29,0,0,1-.08.21.3.3,0,0,1-.2.1l-2.95,0h0a.29.29,0,0,1-.28-.28.28.28,0,0,1,.28-.29l2.63,0-.32-3.59A.29.29,0,0,1,449,325.84Z"/><path class="cls-5" d="M444.93,340.89h3.42l.45.55h.27a0,0,0,0,0,0-.07l-.4-.49a.45.45,0,0,0,.34-.44v-2.09a.46.46,0,0,0-.45-.46H444.7a.47.47,0,0,0-.46.46v2.09a.46.46,0,0,0,.34.44l-.4.49a0,0,0,0,0,0,.07h.28Zm-.41-2.54a.18.18,0,0,1,.18-.18h3.89a.18.18,0,0,1,.17.18v.33a.11.11,0,0,1-.11.12h-4a.12.12,0,0,1-.12-.12Zm.12.73h4a.11.11,0,0,1,.11.12v.39a.12.12,0,0,1-.11.12h-4a.12.12,0,0,1-.12-.12v-.39A.12.12,0,0,1,444.64,339.08Zm-.12,1.36v-.34a.11.11,0,0,1,.12-.11h4a.11.11,0,0,1,.11.11v.34a.18.18,0,0,1-.17.17H444.7A.18.18,0,0,1,444.52,340.44Zm5.49.61v.16a.06.06,0,0,0,.07.06l2.07-.25v.36a.06.06,0,0,0,.06.06h.16a.06.06,0,0,0,.06-.06v-4.93h.1a.06.06,0,0,0,.06-.06v-.15a.06.06,0,0,0-.06-.06h-2.46a.06.06,0,0,0-.06.06v.15a.06.06,0,0,0,.06.06h.2V341l-.21,0S450,341,450,341.05Zm.67-4.6H452a.13.13,0,0,1,.13.13v1a.12.12,0,0,1-.13.12h-1.34a.12.12,0,0,1-.13-.12v-1A.13.13,0,0,1,450.68,336.45Zm0,1.53H452a.13.13,0,0,1,.13.13v1a.12.12,0,0,1-.13.12h-1.34a.12.12,0,0,1-.13-.12v-1A.13.13,0,0,1,450.68,338Zm0,1.53H452a.13.13,0,0,1,.13.13v1a.13.13,0,0,1-.12.12l-1.34.17a.13.13,0,0,1-.14-.13v-1.15A.13.13,0,0,1,450.68,339.51Zm4.1,7.43H454s-.06,0-.06.07v.15a.05.05,0,0,0,.06.06h.83a.36.36,0,0,0,.36-.36v-4.45a.36.36,0,0,0-.36-.36H453.2a.36.36,0,0,0-.36.36v1.44a.36.36,0,0,0,.36.36h1.66v2.65A.07.07,0,0,1,454.78,346.94Zm-1.66-4.53a.08.08,0,0,1,.08-.08h1.58a.08.08,0,0,1,.08.08v.47a.11.11,0,0,1-.11.11h-1.52a.11.11,0,0,1-.11-.11Zm.08,1.52a.08.08,0,0,1-.08-.08v-.47a.11.11,0,0,1,.11-.11h1.52a.11.11,0,0,1,.11.11v.33a.22.22,0,0,1-.22.22Zm-8.67-6.37h4.22a.46.46,0,0,0,.47-.46v-.47a.47.47,0,0,0-.39-.45h-4.38a.45.45,0,0,0-.37.36v.66A.45.45,0,0,0,444.53,337.56Zm3.32-1.11h.9a.18.18,0,0,1,.19.18v.47a.18.18,0,0,1-.19.18h-.9a.25.25,0,0,1-.25-.25v-.33A.25.25,0,0,1,447.85,336.45Zm-1.61,0h.83a.25.25,0,0,1,.25.25V337a.25.25,0,0,1-.25.25h-.83A.25.25,0,0,1,446,337v-.33A.25.25,0,0,1,446.24,336.45Zm-1.89.18a.18.18,0,0,1,.18-.18h.93a.25.25,0,0,1,.25.25V337a.25.25,0,0,1-.25.25h-.93a.18.18,0,0,1-.18-.18Zm6.09,5.42a.36.36,0,0,0-.35.36v4.83a.06.06,0,0,0,.06.06h.15a.06.06,0,0,0,.06-.06v-3H452a.36.36,0,0,0,.36-.36v-1.44a.36.36,0,0,0-.36-.36Zm1.67,1.8a.08.08,0,0,1-.08.08h-1.44a.22.22,0,0,1-.23-.22v-.33a.11.11,0,0,1,.12-.11H452a.11.11,0,0,1,.11.11Zm0-1.44v.47a.11.11,0,0,1-.11.11h-1.52a.11.11,0,0,1-.12-.11v-.47a.09.09,0,0,1,.08-.08H452A.08.08,0,0,1,452.11,342.41Zm-2.94.09v-.09a.1.1,0,0,0-.09-.1h-2.21a.14.14,0,0,1-.14-.14v0a.09.09,0,0,0-.09-.09h-.1a.09.09,0,0,0-.09.09v0a.14.14,0,0,1-.14.14h-2.15a.1.1,0,0,0-.1.1v.09a.09.09,0,0,0,.1.09h2.15a.14.14,0,0,1,.14.14v.18a.21.21,0,0,1-.22.21H444.6a.36.36,0,0,0-.36.36v1.38a.36.36,0,0,0,.36.36h3.71v.44a.15.15,0,0,1-.14.14h-4a.09.09,0,0,0-.1.09V346a.1.1,0,0,0,.1.1h.48a.14.14,0,0,1,.14.09l.39,1.07a.1.1,0,0,0,.09.06h.1a.09.09,0,0,0,.09-.12l-.34-.92a.13.13,0,0,1,.13-.18h2.93a.14.14,0,0,1,.14.14V347a.08.08,0,0,1-.08.08h-.85v.25h1a.36.36,0,0,0,.2-.33v-.75a.14.14,0,0,1,.14-.14h.36a.1.1,0,0,0,.09-.1v-.09a.09.09,0,0,0-.09-.09h-.36a.15.15,0,0,1-.14-.14v-.44h.1a.36.36,0,0,0,.36-.36v-1.38a.36.36,0,0,0-.36-.36H447a.21.21,0,0,1-.22-.21v-.18a.14.14,0,0,1,.14-.14h2.21A.09.09,0,0,0,449.17,342.5Zm-2.86,2.44H444.6a.09.09,0,0,1-.08-.08v-.35a.2.2,0,0,1,.2-.2h1.59a.14.14,0,0,1,.14.14v.35A.14.14,0,0,1,446.31,344.94Zm0-.91h-1.59a.2.2,0,0,1-.2-.2v-.35a.09.09,0,0,1,.08-.08h1.71a.14.14,0,0,1,.14.14v.35A.14.14,0,0,1,446.31,344Zm2.45.83a.08.08,0,0,1-.08.08h-1.81a.14.14,0,0,1-.14-.14v-.35a.14.14,0,0,1,.14-.14h1.7a.2.2,0,0,1,.19.2Zm-.08-1.46a.08.08,0,0,1,.08.08v.35a.2.2,0,0,1-.19.2h-1.7a.14.14,0,0,1-.14-.14v-.35a.14.14,0,0,1,.14-.14Zm4-2h0Zm2.46-.5a.07.07,0,0,1,0,.06v.44h0L454,339.87l-1,1.48a0,0,0,0,1,0,0V341a.1.1,0,0,1,0-.07l.87-1.27-.87-1.28a.07.07,0,0,1,0-.06v-.35a0,0,0,0,1,.06,0l1,1.46.7-1a.46.46,0,0,0,.08-.25v-1.51a.14.14,0,0,0-.14-.14H453a.06.06,0,0,1,0-.06v-.15s0-.06,0-.06h1.73a.41.41,0,0,1,.34.41v1.51a.66.66,0,0,1-.13.4l-.76,1.13Zm.53,7.21h-12a.5.5,0,0,1-.5-.5v-12a.5.5,0,0,1,.5-.5h12a.5.5,0,0,1,.51.5v12A.51.51,0,0,1,455.63,348.15Zm-12-12.75a.26.26,0,0,0-.26.26v12a.26.26,0,0,0,.26.26h12a.26.26,0,0,0,.26-.26v-12a.26.26,0,0,0-.26-.26Z"/><path class="cls-3" d="M490,341.58a2.66,2.66,0,0,1-5.24,0v-.06l.21-19.61a68.57,68.57,0,0,1-5.83,8.38,2.77,2.77,0,0,1-2.12,1.06,2.67,2.67,0,0,1-2.65-2.49,2.39,2.39,0,0,1,.79-1.7A55.28,55.28,0,0,0,485,313v-.42l-6.26.1h-.05a2.26,2.26,0,0,1-2.38-2.33,2.31,2.31,0,0,1,2.43-2.33H485l-.15-9.11v-.06a2.37,2.37,0,0,1,2.59-2.33,2.43,2.43,0,0,1,2.65,2.33v.06s-.1,4.23-.16,9.11h5.51a2.33,2.33,0,0,1,.06,4.66h-.06l-5.56-.1c0,1.32-.05,2.7-.05,3.87a2,2,0,0,1,.79-.16c1.48,0,5.83,3.65,6.41,4.29a2.19,2.19,0,0,1,.64,1.59,2.66,2.66,0,0,1-2.49,2.6,2,2,0,0,1-1.59-.8,29.84,29.84,0,0,0-3.71-3.55c.05,8.32.21,21.09.21,21.09Zm27-10.29a2.38,2.38,0,0,1,2.54-2.54,2.77,2.77,0,0,1,3,2.86c0,9.75-4.93,10.92-11.24,10.92-3,0-10.39,0-10.39-7.15,0-2.28,0-33.76.11-35.41a2.45,2.45,0,0,1,2.7-2.17c2.65,0,2.65,2.12,2.65,3,0,4.82-.31,28.41-.31,33.07,0,3,1.59,3.66,5.08,3.66s5.89-.27,5.89-5.89v-.32Z"/><path class="cls-3" d="M538.54,309.2h-.37c-1.22.05-1.7.58-1.7,1.69-.05,3.39-.05,8.06-.05,12.51v5.4a2,2,0,0,1-2.07,2.23,2.17,2.17,0,0,1-2.17-2.28c0-2.33-.06-5.09-.06-7.84,0-3.87.06-7.85.11-10.81,0-3.18,1.43-4.67,5-4.77h1.11v-6.2a2.36,2.36,0,0,1,4.71,0v6.14c2.55,0,6.1,0,6.2,4.77.06,4.14.11,14,.16,15.69v.32a3.73,3.73,0,0,1-4.08,4.08c-1.59,0-2-.37-2.38-.95v12.18a2,2,0,0,1-2.23,2,2.05,2.05,0,0,1-2.28-2Zm4.4,0,0,17a1.14,1.14,0,0,1,1-.59h.53c.31,0,.74-.1.74-.79v-3.55c0-3.13,0-7.58-.11-10.39a1.54,1.54,0,0,0-1.59-1.69Zm5.82,34.18a2.41,2.41,0,0,1-2.49-2.44,2.29,2.29,0,0,1,1.86-2.28c5.25-1.32,7.74-3.76,8.64-7.68a2.19,2.19,0,0,1,2.22-1.8,2.41,2.41,0,0,1,2.49,2.27,1.42,1.42,0,0,1-.05.43C559.73,340.67,550.41,343.38,548.76,343.38Zm25-9.33a1.93,1.93,0,0,1,2.07-2,2.26,2.26,0,0,1,2.44,2.06v.37c0,6.79-2.44,8.43-8.21,8.43-4.56,0-6.68-1.27-6.68-5.83,0-3,0-5.72.16-8.64l-11.77.16h-.05a2.09,2.09,0,0,1,0-4.18h3a21.23,21.23,0,0,0-2.44-3.29,1.89,1.89,0,0,1-.53-1.22,2.17,2.17,0,0,1,2.28-1.85c2,0,5,4.5,5,5.83a1.75,1.75,0,0,1-.06.58l1.65.05-.11-6.09v-.06a2.14,2.14,0,0,1,2.28-2.17,2.18,2.18,0,0,1,2.33,2.17v.06l-.11,6.09h1a43.84,43.84,0,0,0,3.5-5.78,1.78,1.78,0,0,1,1.69-1.11,2.58,2.58,0,0,1,2.49,2.39c0,.53-.1,1.16-2.81,4.45l5.09,0h0a2,2,0,0,1,2,2.17,1.91,1.91,0,0,1-2,2h0l-8-.1c-.11,3.18-.16,5.77-.16,8.16,0,1.85,1.8,1.91,2.28,1.91,2.91,0,3.65-.38,3.65-4v-.53Zm-22.36-25.33c0-1.91.11-3.82.16-5.78.11-2.33,1.54-4.5,5-4.66,1.8,0,3.82-.11,5.83-.11,2.49,0,5,.06,7.47.11a4.91,4.91,0,0,1,4.72,4.29c.11,1.86.16,3.71.16,5.57,0,1,0,2,0,3A5,5,0,0,1,569.7,316c-2.12.11-4.45.16-6.68.16s-4.45-.05-6.31-.16c-3.28-.21-5.24-2.12-5.3-4.82C551.36,310.31,551.36,309.51,551.36,308.72Zm18.76,0H555.71c0,.53,0,1.06,0,1.54.11,1.91,1.7,2,7.26,2s7,0,7.1-2.07Zm0-4.66a1.82,1.82,0,0,0-2-2c-1.64,0-3.44-.11-5.19-.11s-3.44.06-5,.11a1.9,1.9,0,0,0-2.07,2c0,.37,0,.69,0,1.06h14.36Z"/><path class="cls-3" d="M629.8,336.38v.11c0,3.34-1.91,6.83-8.48,6.83-5,0-6.25-1-6.25-3a2.24,2.24,0,0,1,2.22-2.39c.16,0,.27,0,.43,0a25.9,25.9,0,0,0,3.33.32c2.07,0,3.56-.58,3.61-2.81,0-1.64.05-3.6.05-5.67,0-4.18-.05-8.79-.21-12.24-.11-2.81-1.06-3.28-3.55-3.34-3.66,0-7.47-.1-11.18-.1s-7.37.05-10.81.1c-2.92.06-3.66.85-3.71,3.34-.11,6.52-.11,16.06-.16,24a2.21,2.21,0,0,1-2.44,2.12,2.3,2.3,0,0,1-2.54-2.12c0-7.58.1-18.55.26-26.23,0-3.13,2.49-5.3,6.31-5.36,3.34-.05,6.89-.1,10.49-.1v-3.66H589.74a2.31,2.31,0,1,1,0-4.61h17.38v-2.81a2.76,2.76,0,0,1,5.51,0l0,2.81h17.48a2.31,2.31,0,1,1,0,4.61H612.58v3.66c3.65,0,7.26,0,10.81.1a6,6,0,0,1,6.14,5.73c.06,3.34.11,13.3.16,15.31Zm-17.54-3.55,0,6.94a2.35,2.35,0,0,1-2.49,2.34,2.28,2.28,0,0,1-2.44-2.34l.06-6.94-7.53.05a2,2,0,1,1,0-4.08l7.53.06,0-3.61-8.06.06a2,2,0,1,1,0-4h4.77a1.93,1.93,0,0,1-.47-.63,16.11,16.11,0,0,0-1.86-3.24,1.32,1.32,0,0,1-.26-.84c0-1,1.27-1.86,2.43-1.86,2,0,3.93,3.71,3.93,4.66a2.33,2.33,0,0,1-1.12,2h3.76c.06-.11.11-.16.16-.27a17.82,17.82,0,0,0,2.28-5.25,1.68,1.68,0,0,1,1.75-1.22c1.27,0,2.76.85,2.76,2.12,0,1-1.33,3.34-2.07,4.56h4.61a2,2,0,1,1,0,4l-7.9-.06.06,3.61,7.52-.06a2,2,0,1,1,0,4.08Z"/><path class="cls-3" d="M642.63,324.62a1.28,1.28,0,0,0,.16-.27,67.27,67.27,0,0,0,5.14-7.73,43.72,43.72,0,0,0-5.72-6.15,2,2,0,0,1-.75-1.54,2,2,0,0,1,2-2,2.11,2.11,0,0,1,1.27.42l.21.16a41.71,41.71,0,0,0,3-8.43,1.93,1.93,0,0,1,2-1.59,2.48,2.48,0,0,1,2.6,2.28c0,1.75-2.91,8.06-4.4,10.66.74.74,1.38,1.53,2,2.22a48.09,48.09,0,0,0,2.7-5.83,2,2,0,0,1,1.91-1.38,2.52,2.52,0,0,1,2.55,2.39c0,1.64-5,10.07-8.75,15.53l4.08-1.06c.16-.85.32-1.7.43-2.55a2.31,2.31,0,0,1,2.33-2.06,2.21,2.21,0,0,1,2.33,2.17c0,1.69-2.28,14.41-11.71,21.83a2.67,2.67,0,0,1-1.7.64,2.6,2.6,0,0,1-2.54-2.44,2.12,2.12,0,0,1,.95-1.75,24.65,24.65,0,0,0,8.69-11.55c-1.53.48-7.36,2.28-8.42,2.28a2.09,2.09,0,0,1-1.91-2.33,1.73,1.73,0,0,1,1.38-1.86Zm13.94,13.25a2.35,2.35,0,0,1-2.33-2.34,2.1,2.1,0,0,1,1.48-2c.79-.26,1.75-.64,2.76-1.06V303.53c0-4.14,3.17-4.3,6.94-4.3,3.18,0,6.67.11,6.78,3.87,0,2,.11,5.41.11,8.59,0,2,0,3.87-.06,5.3-.16,4.08-3.55,4.61-7.63,4.61-.58,0-1.16-.06-1.64-.06,0,1.49-.05,5.62-.05,9l4.4-2a24,24,0,0,0-1.33-2.07,1.62,1.62,0,0,1-.37-1,2,2,0,0,1,2.12-1.69,2.08,2.08,0,0,1,1.59.69c2.33,2.54,4.5,7.68,4.5,9.11a2.52,2.52,0,0,1-2.49,2.54,1.89,1.89,0,0,1-1.9-1.64c-.22-.79-.38-1.59-.64-2.38C666.32,333.41,658.1,337.87,656.57,337.87Zm6.2-25.55c0,1.86.05,3.77.05,5.25.48.05,1.27.05,2.07.05,3.07,0,3.12-.05,3.12-5.3Zm5.24-4c0-5.14,0-5.2-2.59-5.2-1.8,0-2.6.22-2.6,1.49v3.71Zm6.42,32.75c0-9.65.05-25.12.26-36.83C674.8,299,676.86,299,682,299c1,0,2,0,2.86.05,2.86.11,4.24,1.81,4.24,4.14,0,2.6-3.12,10-3.44,10.76a.57.57,0,0,0-.06.31,1.77,1.77,0,0,0,.48,1.06,14.88,14.88,0,0,1,3.76,10.28c0,5.78-3.33,8.64-6.67,8.64-1.54,0-3.66-.63-3.66-2.7a2.14,2.14,0,0,1,1.86-2.33,2.35,2.35,0,0,1,.58.1,3.15,3.15,0,0,0,.74.11c1.33,0,2.49-1.27,2.49-4a12.27,12.27,0,0,0-2.07-7.2c-.95-1.28-1.74-2.23-1.74-3.77a7,7,0,0,1,.47-2.28,59.32,59.32,0,0,0,2.55-8.16c0-.42-.16-.9-2-.9-3,0-3.13.58-3.13,1.86,0,5.19-.11,11.13-.11,17.27V341.1a2.24,2.24,0,0,1-2.33,2.33A2.29,2.29,0,0,1,674.43,341.1Z"/><path class="cls-3" d="M700.24,343.06a3,3,0,0,1-2.91-2.81,2.27,2.27,0,0,1,1.32-2,25.35,25.35,0,0,0,7.1-5.51c.06-2.39.11-4.46.11-6.47v-2.17c0-1.38-.64-1.54-2.44-1.54h-2.07c-1,0-2.91-.05-2.91-2.28a2.27,2.27,0,0,1,2.22-2.38c1.91,0,3.4,0,5.15.05,3.39.11,5,1.59,5,5,0,3.08-.11,6.73-.11,10.12,3.34,4.24,8.8,5.36,16.16,5.36,5.3,0,11.08-.59,15.11-.9h.26a2.48,2.48,0,0,1,2.55,2.54,2.6,2.6,0,0,1-2.65,2.6c-3.29.31-8.16.63-13,.63-12.35,0-16.22-1.8-20.83-6.52C705.59,339.72,702.31,343.06,700.24,343.06Zm6.47-34.76a15.86,15.86,0,0,0-5.2-4.62,1.84,1.84,0,0,1-1.06-1.64,2.71,2.71,0,0,1,2.71-2.38c1.59,0,8.21,4.08,8.21,6.78a3.09,3.09,0,0,1-2.86,3A2.08,2.08,0,0,1,706.71,308.3Zm29.88,18.23h-6.35V334a2.26,2.26,0,0,1-4.51,0v-7.47h-6.15c0,2.38,0,4.87.06,7.36v.05a2.1,2.1,0,0,1-2.28,2.12,2.23,2.23,0,0,1-2.33-2.17c-.06-3.12-.06-6.2-.06-9.22,0-4.08,0-8,.06-11.66.05-3.23,1.75-4.82,5.45-4.82,1.44,0,2.81-.05,4.24-.05a12.39,12.39,0,0,0-1.9-1,1.31,1.31,0,0,1-1-1.27,2.41,2.41,0,0,1,2.33-2.12c1.17,0,3.61,1.59,3.77,1.7,1.11-.53,4.61-2.44,4.61-2.81,0-.16-.16-.21-.48-.21-3.76,0-11,.1-15.16.26h-.1a1.83,1.83,0,0,1-1.8-2,1.94,1.94,0,0,1,1.85-2.12c5.57-.16,12.08-.16,17.28-.16,3.23,0,5,1.53,5,3.23,0,1.48-1.32,3.18-8,6.41,8.11,0,9.86.27,9.86,6.89,0,8.69,0,11.13.21,14v.48c0,3.23-1.8,6.09-5.72,6.09-1.75,0-3.82-.47-3.82-2.65a1.86,1.86,0,0,1,1.75-2,1.57,1.57,0,0,1,.48.05,3.87,3.87,0,0,0,1.11.16c.85,0,1.48-.53,1.48-2.81Zm-10.86-7.42h-6.15c0,1.21-.05,2.49-.05,3.81h6.2Zm0-7.21c-5.62,0-6.09,0-6.09,1.75l-.06,1.85h6.15Zm10.81,3.6c0-.69,0-1.32,0-1.85a1.64,1.64,0,0,0-1.8-1.7c-1.49-.05-3-.05-4.45-.05v3.6Zm-6.3,3.61v3.81h6.41c0-1.22-.06-2.54-.06-3.81Z"/><path class="cls-3" d="M766.81,340.62a3,3,0,0,1-3.13-2.91c0-4.93.21-16.22.21-23.21,0-7.42-.26-8-2.06-8h-.75a2.63,2.63,0,0,1-2.7-2.81,3.09,3.09,0,0,1,2.76-3.23c1.06-.05,1.48-.05,2.59-.05,3.66,0,6,2.17,6.15,5.67,0,.69,0,1.64,0,2.81,0,4.24-.15,11.34-.15,18.92,0,3.28,0,6.62.1,9.91v.1A2.85,2.85,0,0,1,766.81,340.62Z"/><path class="cls-3" d="M800.67,315.5c3.24-.1,4.77-2.22,4.77-5.35,0-2.65-2.28-4.77-5.51-4.77a7.6,7.6,0,0,0-5.62,2.76,2.64,2.64,0,0,1-1.85.79,3.12,3.12,0,0,1-3-3c0-3,6.1-6,10.71-6,6.73,0,11,4.3,11,10.23a8.5,8.5,0,0,1-4.29,7.79c6.2,2.86,6.3,9.22,6.3,10.23,0,7.47-5.72,12.77-13.72,12.77s-12.67-4.66-12.67-7.15a3.29,3.29,0,0,1,3.13-3.18,2.84,2.84,0,0,1,2.07,1c2.38,2.65,4.08,3.66,7.73,3.66a7.4,7.4,0,0,0,7.63-7.21c0-5.4-3.23-7.05-7-7.05h-.48c-.32,0-.58.06-.79.06a2.86,2.86,0,0,1-2.81-2.81,2.77,2.77,0,0,1,2.75-2.76Z"/><path class="cls-3" d="M854.52,335.06v.21c0,4-2.54,8-10.07,8a28.24,28.24,0,0,1-5.56-.58,2.94,2.94,0,0,1-2.6-2.86A2.7,2.7,0,0,1,839,337a4.33,4.33,0,0,1,.74.1,24.22,24.22,0,0,0,4.72.64c2.76,0,4.45-1,4.45-3.66V305.91h-18a2.47,2.47,0,0,1,0-4.93h40.22a2.34,2.34,0,0,1,2.28,2.49,2.26,2.26,0,0,1-2.28,2.44H854.41v22.84Z"/><path class="cls-3" d="M914.46,341.58c-2.06.1-4.5.15-6.94.15-12,0-16.43-.1-16.64-7.26-.11-3.18-.16-8.47-.16-13.88s0-10.86.16-14.36c.16-4.19,2.6-6.2,6.84-6.36,2.17-.05,6.78-.16,11-.16,2.86,0,5.56.05,7.26.16,3.55.21,6.41,2.07,6.57,5.94.1,3.39.16,9.69.16,15.68,0,5.25-.06,10.23-.11,12.88C922.41,339.3,919.6,341.36,914.46,341.58Zm3.23-25H895.54v7.47h22.15Zm-.05-4.51c0-1.69,0-3.18-.1-4.29-.16-3.55-1.38-3.6-10.66-3.6-2.91,0-5.67,0-7.36.15-3.71.22-3.92,1.12-3.92,7.74Zm-22,16.48c0,2,0,3.66.1,4.82C895.81,337,897.34,337,907,337c2.38,0,4.82,0,6.57-.16,4.08-.21,4.08-1.8,4.08-8.27Z"/><path class="cls-3" d="M980.55,308c-4-.11-12.45-.16-19.5-.16-4.08,0-7.68.05-9.75.05-1.86,0-2.54,1-2.54,2.44-.11,9.7.63,22.68-5.36,30.31A2.92,2.92,0,0,1,941,342a2.79,2.79,0,0,1-2.81-2.44,2.09,2.09,0,0,1,.48-1.22c4.4-5.51,5.08-13.25,5.08-20.61,0-2.6,0-5.2-.1-7.64v-.15c0-4.3,2.06-6.52,6.89-6.58,2.49,0,5.83-.05,9.48-.05v-3.87a2.76,2.76,0,0,1,5.51,0v3.92c5.94,0,11.77.06,15.05.11a2.26,2.26,0,0,1,2.5,2.28,2.33,2.33,0,0,1-2.5,2.33ZM967.41,320v5.83c2.49,0,4.93.06,7,.11a5.21,5.21,0,0,1,5.36,4.56c0,1.06.1,2.12.1,3.18s-.05,2.17-.1,3.39a5.51,5.51,0,0,1-5.62,5.19c-2.86.11-5.83.16-8.69.16s-5.62-.05-8.11-.16c-3.66-.16-5.62-2.22-5.72-5.14-.06-1.11-.06-2.07-.06-2.86,0-1.17,0-2.17.06-3.34.1-2.38,1.64-4.87,5.61-5,1.49-.05,3.29-.11,5.2-.11l-.06-14.52a2.24,2.24,0,0,1,2.5-2.22,2.35,2.35,0,0,1,2.59,2.22l-.05,4.14h12.77a2.23,2.23,0,0,1,2.39,2.28,2.25,2.25,0,0,1-2.39,2.27Zm7.47,14c0-2.75-.1-3.81-2.38-3.86-1.75-.06-3.93-.11-6.15-.11-2.7,0-5.46,0-7.68.11-2,.05-2.28,1.27-2.28,3.92,0,.58,0,1.16.05,1.8.16,2.17,1,2.17,9.43,2.17,7.53,0,8.85,0,9-2.17C974.88,335.11,974.88,334.53,974.88,333.94Z"/></g></g></svg>