<svg xmlns="http://www.w3.org/2000/svg" viewBox="0 0 256 256"><defs><style>.cls-1{fill:#fff;}.cls-2{fill:#1e257d;}</style></defs><g id="Layer_2" data-name="Layer 2"><g id="レイヤー_1" data-name="レイヤー 1"><rect class="cls-1" width="256" height="256" rx="128"/><path class="cls-2" d="M177.67,44.11l47.82,82.82a2.15,2.15,0,0,1,0,2.14l-47.82,82.82a2.14,2.14,0,0,1-1.85,1.07H80.18a2.14,2.14,0,0,1-1.85-1.07L30.51,129.07a2.15,2.15,0,0,1,0-2.14L78.33,44.11A2.14,2.14,0,0,1,80.18,43h95.64A2.14,2.14,0,0,1,177.67,44.11Zm-37,98.9a4.34,4.34,0,0,0,4.32-4.32V113.33a4.34,4.34,0,0,0-4.32-4.32H115.32a4.34,4.34,0,0,0-4.32,4.32v25.36a4.34,4.34,0,0,0,4.32,4.32Z"/></g></g></svg>