<svg width="62" height="61" viewBox="0 0 62 61" fill="none" xmlns="http://www.w3.org/2000/svg">
<path d="M30.9034 0C34.8985 0.000666479 38.7353 1.56206 41.5958 4.35107C44.4563 7.14008 46.1142 10.9364 46.2159 14.9302C46.3177 18.924 44.8553 22.7994 42.1405 25.7305C39.4257 28.6615 35.6734 30.416 31.6835 30.6201L32.5334 29.46C33.2085 25.3485 32.3886 21.1312 30.222 17.5723C28.0555 14.0134 24.6858 11.3484 20.7235 10.0601C19.4596 9.6553 18.1551 9.39034 16.8335 9.27002C18.0193 6.52115 19.983 4.17929 22.4829 2.53223C24.9828 0.885166 27.9097 0.00478799 30.9034 0ZM0.763411 21.8999C1.76325 18.8247 3.70995 16.1447 6.32506 14.2427C8.94017 12.3406 12.0898 11.314 15.3235 11.3101C16.9361 11.3122 18.5386 11.5653 20.0735 12.0601C23.7143 13.2447 26.7801 15.749 28.6677 19.0801C30.5553 22.4112 31.1281 26.3279 30.2734 30.0601C26.538 27.8125 22.0961 27.0463 17.8236 27.9126C13.5511 28.7789 9.75836 31.2152 7.19347 34.7402C6.39476 35.8084 5.72354 36.966 5.19347 38.1899C2.94384 36.2047 1.32528 33.6041 0.537947 30.709C-0.24938 27.8138 -0.171003 24.751 0.763411 21.8999ZM12.2834 57.3301C9.09164 55.0142 6.91589 51.5568 6.20885 47.6772C5.5018 43.7977 6.31796 39.795 8.48753 36.502C10.6571 33.2089 14.0129 30.8794 17.8567 29.998C21.7004 29.1167 25.7359 29.7512 29.1234 31.77C25.8326 34.6313 23.7317 38.6208 23.2339 42.9531C22.7361 47.2854 23.8774 51.647 26.4335 55.1802C27.2149 56.2506 28.1138 57.2299 29.1134 58.1001C26.5394 59.6292 23.5741 60.3712 20.5832 60.2344C17.5924 60.0975 14.7071 59.0879 12.2834 57.3301ZM49.5334 57.3301C46.3437 59.6284 42.3925 60.6124 38.4974 60.0786C34.6023 59.5448 31.0615 57.5342 28.6076 54.4624C26.1538 51.3907 24.9748 47.493 25.3147 43.5762C25.6545 39.6594 27.4872 36.0231 30.4335 33.4199C31.6603 36.3421 33.6667 38.8709 36.2335 40.73C39.2194 42.8878 42.8094 44.0499 46.4934 44.0503C49.6648 44.0503 52.7763 43.186 55.4934 41.5503C56.1492 44.4752 55.9344 47.5278 54.8752 50.332C53.8161 53.1362 51.9591 55.569 49.5334 57.3301ZM55.5334 39.0303C52.914 40.9224 49.7648 41.9409 46.5334 41.9409C43.3021 41.9409 40.1529 40.9224 37.5334 39.0303C35.2943 37.4174 33.5406 35.2209 32.4635 32.6802C36.8059 32.3026 40.8493 30.3118 43.7962 27.1001C46.7432 23.8884 48.3798 19.6889 48.3834 15.3301C48.3816 14.004 48.2307 12.6825 47.9335 11.3901C51.0343 11.6774 53.974 12.9021 56.3616 14.9014C58.7491 16.9007 60.4712 19.5799 61.2986 22.582C62.1259 25.5842 62.0193 28.7669 60.993 31.707C59.9667 34.6471 58.0694 37.2049 55.5535 39.04L55.5334 39.0303Z" fill="#1E257D"/>
</svg>
