<svg xmlns="http://www.w3.org/2000/svg" viewBox="0 0 233.47 233.47"><defs><style>.cls-1{opacity:0.3;}.cls-2{fill:#c19421;}</style></defs><g id="Layer_2" data-name="Layer 2"><g id="レイヤー_1" data-name="レイヤー 1"><g class="cls-1"><rect class="cls-2" x="194.56" y="155.65" width="38.91" height="38.91" transform="translate(428.03 350.21) rotate(-180)"/><rect class="cls-2" x="155.65" y="194.56" width="38.91" height="38.91" transform="translate(350.21 428.03) rotate(-180)"/><rect class="cls-2" x="116.74" y="155.65" width="38.91" height="38.91" transform="translate(272.38 350.21) rotate(-180)"/><rect class="cls-2" x="77.82" y="194.56" width="38.91" height="38.91" transform="translate(194.56 428.03) rotate(-180)"/><rect class="cls-2" x="194.56" y="77.82" width="38.91" height="38.91" transform="translate(428.03 194.56) rotate(-180)"/><rect class="cls-2" x="194.56" width="38.91" height="38.91" transform="translate(428.03 38.91) rotate(-180)"/><rect class="cls-2" x="155.65" y="116.74" width="38.91" height="38.91" transform="translate(350.21 272.38) rotate(-180)"/><rect class="cls-2" x="155.65" y="38.91" width="38.91" height="38.91" transform="translate(350.21 116.74) rotate(-180)"/><rect class="cls-2" x="116.74" y="77.82" width="38.91" height="38.91" transform="translate(272.38 194.56) rotate(-180)"/><rect class="cls-2" x="77.82" y="116.74" width="38.91" height="38.91" transform="translate(194.56 272.38) rotate(-180)"/><rect class="cls-2" x="38.91" y="155.65" width="38.91" height="38.91" transform="translate(116.74 350.21) rotate(-180)"/><rect class="cls-2" y="194.56" width="38.91" height="38.91" transform="translate(38.91 428.03) rotate(-180)"/></g></g></g></svg>