<svg width="75" height="61" viewBox="0 0 75 61" fill="none" xmlns="http://www.w3.org/2000/svg">
<path d="M51.0699 8.8501C45.8039 7.30043 41.0962 4.26627 37.51 0.110352C33.9181 4.26443 29.2076 7.29801 23.9399 8.8501C22.7984 10.3739 22.3089 12.2887 22.579 14.1733C22.849 16.058 23.8565 17.758 25.38 18.8999L33.3199 24.8999C34.1531 24.1941 35.1503 23.7096 36.22 23.4902V19.27C36.22 18.9279 36.3558 18.5998 36.5978 18.3579C36.8397 18.116 37.1679 17.98 37.51 17.98C37.8521 17.98 38.1802 18.116 38.4221 18.3579C38.664 18.5998 38.8 18.9279 38.8 19.27V23.4902C39.8667 23.7095 40.8606 24.1942 41.6899 24.8999L49.6899 18.8999C51.2041 17.7491 52.1999 16.0448 52.4586 14.1606C52.7173 12.2765 52.2179 10.3665 51.0699 8.8501Z" fill="#1E257D"/>
<path d="M51.5602 30.88H43.8601C43.7705 31.4115 43.6125 31.9291 43.3901 32.42L55.3901 41.42C56.9164 42.5595 58.832 43.0478 60.7175 42.778C62.603 42.5081 64.3047 41.502 65.4501 39.9801C66.1079 39.092 66.5559 38.0663 66.7601 36.9801H67.5201C69.3793 36.9107 71.1392 36.1237 72.4301 34.7838C73.7209 33.4439 74.442 31.6555 74.442 29.795C74.442 27.9346 73.7209 26.1466 72.4301 24.8068C71.1392 23.4669 69.3793 22.6798 67.5201 22.6105H66.7601C66.5369 21.4092 66.0108 20.2845 65.2317 19.3434C64.4525 18.4022 63.4461 17.6756 62.3076 17.2321C61.1692 16.7885 59.9363 16.6428 58.7258 16.8087C57.5153 16.9747 56.3672 17.4467 55.3901 18.1803L43.3901 27.1803C43.6125 27.6712 43.7705 28.1889 43.8601 28.7203H51.5602C51.7141 28.7057 51.8694 28.7232 52.0161 28.7721C52.1628 28.821 52.2977 28.9 52.4121 29.004C52.5265 29.1081 52.618 29.2347 52.6805 29.3761C52.7431 29.5175 52.7754 29.6707 52.7754 29.8253C52.7754 29.98 52.7431 30.1326 52.6805 30.274C52.618 30.4155 52.5265 30.5426 52.4121 30.6466C52.2977 30.7506 52.1628 30.8297 52.0161 30.8785C51.8694 30.9274 51.7141 30.945 51.5602 30.9303V30.88Z" fill="#1E257D"/>
<path d="M44.5698 53.5303C44.8196 53.5452 45.07 53.5452 45.3198 53.5303C46.8263 53.5282 48.2942 53.0527 49.516 52.1714C50.7378 51.2901 51.652 50.0475 52.1294 48.6187C52.6068 47.1898 52.6233 45.6468 52.1766 44.208C51.7299 42.7693 50.8426 41.5073 49.6399 40.6001L41.6399 34.6001C40.8118 35.3076 39.8172 35.793 38.7499 36.0103V40.3701C38.7499 40.7122 38.614 41.0403 38.3721 41.2822C38.1301 41.5241 37.802 41.6602 37.4598 41.6602C37.1177 41.6602 36.7896 41.5241 36.5477 41.2822C36.3058 41.0403 36.1699 40.7122 36.1699 40.3701V36.1499C35.1003 35.9305 34.103 35.446 33.2699 34.7402L25.3298 40.7402C24.2439 41.9863 23.4356 43.4492 22.9586 45.0317C22.4816 46.6142 22.3468 48.2798 22.5631 49.9185C22.7794 51.5571 23.342 53.1311 24.2134 54.5356C25.0847 55.9401 26.2449 57.1433 27.6169 58.0649C28.989 58.9866 30.5415 59.6054 32.1713 59.8809C33.801 60.1563 35.4706 60.082 37.0693 59.6626C38.6681 59.2432 40.1593 58.4883 41.4438 57.4482C42.7284 56.4082 43.777 55.1064 44.5199 53.6299L44.5698 53.5303Z" fill="#1E257D"/>
<path d="M31.1503 30.8798H23.4502C23.1753 30.8536 22.92 30.7262 22.7343 30.5219C22.5485 30.3175 22.4454 30.051 22.4454 29.7748C22.4454 29.4986 22.5485 29.2325 22.7343 29.0282C22.92 28.8239 23.1753 28.696 23.4502 28.6698H31.1503C31.2445 28.1394 31.4022 27.6223 31.6202 27.1298L19.6202 18.1298C18.0965 16.9883 16.1818 16.4989 14.2971 16.7689C12.4125 17.039 10.7121 18.0467 9.57019 19.5702C8.90255 20.4526 8.45367 21.4807 8.26025 22.5702H7.49023C5.63104 22.6396 3.87113 23.4266 2.58032 24.7665C1.28952 26.1063 0.568359 27.8943 0.568359 29.7548C0.568359 31.6152 1.28952 33.4037 2.58032 34.7435C3.87113 36.0834 5.63104 36.8704 7.49023 36.9398H8.26025C8.45585 38.0286 8.90452 39.0563 9.57019 39.9398C10.7137 41.461 12.4137 42.4668 14.2976 42.7367C16.1815 43.0066 18.0955 42.5187 19.6202 41.3798L31.6202 32.3798C31.4053 31.8999 31.2475 31.3965 31.1503 30.8798Z" fill="#1E257D"/>
<path d="M37.51 25.5303C36.6686 25.5283 35.8455 25.776 35.145 26.2422C34.4446 26.7084 33.8983 27.3719 33.5754 28.1489C33.2525 28.9259 33.1675 29.7816 33.3312 30.6069C33.4948 31.4323 33.8998 32.1902 34.4947 32.7852C35.0897 33.3801 35.848 33.7851 36.6733 33.9487C37.4987 34.1124 38.354 34.0275 39.131 33.7046C39.908 33.3817 40.5717 32.8357 41.038 32.1353C41.5042 31.4348 41.752 30.6115 41.75 29.77C41.7474 28.6463 41.2998 27.5695 40.5052 26.7749C39.7107 25.9803 38.6337 25.5329 37.51 25.5303Z" fill="#1E257D"/>
</svg>
