<svg width="59" height="64" viewBox="0 0 59 64" fill="none" xmlns="http://www.w3.org/2000/svg">
<path d="M54.9999 34.7603C54.9999 34.6803 54.9999 34.6003 54.9999 34.5103L55.1499 34.4502L54.7999 33.8799C54.7358 33.7376 54.6553 33.6035 54.5599 33.48C54.5415 33.2136 54.5415 32.9465 54.5599 32.6802C54.5599 32.2602 54.5599 31.7602 54.5599 31.2002C54.5599 30.4802 54.6199 29.6801 54.6199 28.8101C54.6589 26.4385 54.3214 24.0758 53.6199 21.8101C52.6537 18.88 50.953 16.2463 48.6799 14.1602C46.1282 11.7905 43.04 10.0748 39.6799 9.16016C40.056 8.17602 40.1871 7.11543 40.0621 6.06934C39.9372 5.02324 39.5598 4.02314 38.9625 3.15527C38.3653 2.28741 37.566 1.57778 36.6335 1.0874C35.7011 0.597023 34.6634 0.340635 33.6099 0.340332C32.4408 1.37715 30.9324 1.94971 29.3699 1.94971C27.8073 1.94971 26.2989 1.37715 25.1299 0.340332C24.0764 0.340635 23.0386 0.597023 22.1062 1.0874C21.1738 1.57778 20.3745 2.28741 19.7772 3.15527C19.1799 4.02314 18.8026 5.02324 18.6776 6.06934C18.5526 7.11543 18.6839 8.17602 19.0599 9.16016C15.7012 10.0781 12.6138 11.7934 10.0599 14.1602C7.78851 16.2517 6.08816 18.8883 5.11987 21.8203C4.41837 24.0861 4.08084 26.4488 4.11987 28.8203C4.11987 29.6903 4.11993 30.5002 4.17993 31.2202C4.17993 31.7702 4.17993 32.2699 4.17993 32.6899C4.17993 33.1099 4.17993 33.4103 4.17993 33.5103C3.9052 33.8967 3.73617 34.3484 3.68982 34.8203C1.68982 37.1703 0.319824 39.8903 0.319824 45.0703C0.319824 56.5603 11.1598 63.4199 29.3198 63.4199C47.4798 63.4199 58.3198 56.5603 58.3198 45.0703C58.3798 39.8303 56.9999 37.1103 54.9999 34.7603ZM38.4899 9.14014C38.3769 9.37417 38.25 9.60142 38.1099 9.82031C38.2519 9.60076 38.3821 9.3736 38.4999 9.14014H38.4899ZM33.6099 4.61035C34.039 4.61035 34.4586 4.73714 34.8154 4.97559C35.1723 5.21403 35.4505 5.55319 35.6147 5.94971C35.779 6.34622 35.8219 6.78267 35.7382 7.20361C35.6544 7.62455 35.4478 8.01097 35.1443 8.31445C34.8408 8.61793 34.4541 8.82447 34.0332 8.9082C33.6123 8.99193 33.1759 8.9494 32.7794 8.78516C32.3829 8.62091 32.044 8.34269 31.8055 7.98584C31.5671 7.62899 31.4398 7.20946 31.4398 6.78027C31.4451 6.20465 31.6769 5.65415 32.0848 5.24805C32.4928 4.84194 33.0442 4.61296 33.6199 4.61035H33.6099ZM25.1299 4.61035C25.5591 4.61035 25.9786 4.73714 26.3354 4.97559C26.6923 5.21403 26.9704 5.55319 27.1346 5.94971C27.2989 6.34622 27.3419 6.78267 27.2582 7.20361C27.1744 7.62455 26.9678 8.01097 26.6643 8.31445C26.3608 8.61793 25.9742 8.82447 25.5532 8.9082C25.1323 8.99193 24.696 8.9494 24.2994 8.78516C23.9029 8.62091 23.564 8.34269 23.3256 7.98584C23.0871 7.62899 22.9598 7.20946 22.9598 6.78027C22.9625 6.20384 23.1934 5.65179 23.6019 5.24512C24.0105 4.83845 24.5634 4.61035 25.1399 4.61035H25.1299ZM20.6399 9.81006C20.4998 9.59117 20.3729 9.36392 20.2599 9.12988C20.3777 9.36334 20.5079 9.59051 20.6499 9.81006H20.6399ZM9.28992 23.0903C10.0266 20.848 11.3283 18.8332 13.0698 17.2402C15.3248 15.1668 18.0826 13.7187 21.0698 13.04C26.5182 11.9067 32.1415 11.9067 37.5898 13.04C40.5762 13.7209 43.3336 15.1687 45.5898 17.2402C47.3314 18.8332 48.6332 20.848 49.3699 23.0903C49.942 24.9245 50.2122 26.8394 50.1699 28.7603C50.1699 29.6303 50.1699 30.4402 50.1099 31.2202C48.6925 29.5262 47.5764 27.6017 46.8099 25.5303C43.8099 17.9003 38.6299 15.3999 29.2899 15.3999C19.9499 15.3999 14.7099 17.9003 11.7699 25.5303C11.0034 27.6017 9.88717 29.5262 8.46985 31.2202C8.46985 30.4402 8.40991 29.6303 8.40991 28.7603C8.39667 26.8345 8.69729 24.9195 9.29993 23.0903H9.28992ZM29.3699 59.0303C23.5799 59.0303 4.69983 58.0303 4.69983 45.0303C4.69983 39.8803 6.15982 38.41 8.56982 35.98C11.3606 33.4204 13.5234 30.2518 14.8899 26.7202C17.1999 20.7202 20.8899 18.6699 29.3699 18.6699C37.8499 18.6699 41.5299 20.6702 43.8499 26.7202C45.2163 30.2518 47.3792 33.4204 50.1699 35.98C52.5799 38.41 54.0399 39.8803 54.0399 45.0303C54.0499 58.0103 35.1699 59.0303 29.3799 59.0303H29.3699Z" fill="#1E257D"/>
</svg>
