<svg width="61" height="61" viewBox="0 0 61 61" fill="none" xmlns="http://www.w3.org/2000/svg">
<path d="M39.4298 35.0906C42.6151 30.6979 44.0277 25.2657 43.3862 19.8777C42.7447 14.4897 40.096 9.54177 35.9684 6.01977C31.8408 2.49777 26.5374 0.660463 21.1156 0.874749C15.6938 1.08904 10.552 3.33924 6.71521 7.17602C2.87842 11.0128 0.628589 16.1546 0.414303 21.5764C0.200017 26.9982 2.03695 32.3013 5.55896 36.4289C9.08096 40.5566 14.0293 43.2054 19.4172 43.8469C24.8052 44.4884 30.237 43.0756 34.6298 39.8904L36.2998 41.5603L41.0997 36.7605L39.4298 35.0906ZM33.0398 33.5002C30.8495 35.6898 28.0591 37.1811 25.0215 37.7849C21.9839 38.3888 18.8354 38.0782 15.9742 36.8928C13.113 35.7074 10.6675 33.7004 8.94702 31.1252C7.22649 28.5501 6.30822 25.5226 6.30822 22.4255C6.30822 19.3285 7.22649 16.301 8.94702 13.7258C10.6675 11.1507 13.113 9.14317 15.9742 7.95776C18.8354 6.77235 21.9839 6.46181 25.0215 7.06567C28.0591 7.66952 30.8495 9.16073 33.0398 11.3503C35.9699 14.2939 37.6115 18.2805 37.604 22.4338C37.5965 26.5871 35.9405 30.5673 32.9998 33.5002H33.0398Z" fill="#1E257D"/>
<path d="M13.1998 14.8401C11.6668 16.8196 10.7706 19.2173 10.6295 21.7171C10.4885 24.2168 11.1093 26.7007 12.4099 28.8401C12.4684 28.9379 12.5457 29.023 12.6374 29.0906C12.7292 29.1582 12.8335 29.2067 12.9442 29.2337C13.0549 29.2606 13.1699 29.2657 13.2825 29.2478C13.395 29.23 13.5029 29.1896 13.5999 29.1297C13.796 29.0077 13.9363 28.8136 13.9906 28.5891C14.0449 28.3646 14.0087 28.128 13.8899 27.9299C12.7722 26.088 12.239 23.9507 12.3603 21.7996C12.4817 19.6485 13.252 17.5842 14.5698 15.8797C14.6461 15.7903 14.7036 15.6866 14.7386 15.5745C14.7737 15.4624 14.7857 15.3447 14.7739 15.2278C14.7621 15.1109 14.7268 14.9976 14.67 14.8948C14.6133 14.7919 14.5364 14.7015 14.4438 14.6292C14.3513 14.5569 14.245 14.504 14.1315 14.4739C14.0179 14.4438 13.8996 14.437 13.7833 14.4539C13.6671 14.4708 13.5555 14.5109 13.4552 14.572C13.3549 14.6332 13.268 14.7142 13.1998 14.8098V14.8401Z" fill="#1E257D"/>
<path d="M59.1898 52.29L42.9899 37.8203L37.3599 43.4502L51.8298 59.6499C53.2998 61.5499 55.9498 61.2701 58.3298 58.8901C60.7098 56.5101 61.0898 53.76 59.1898 52.29Z" fill="#1E257D"/>
</svg>
