<svg width="85" height="64" viewBox="0 0 85 64" fill="none" xmlns="http://www.w3.org/2000/svg">
<path d="M43.9401 17.9399H27.4202L14.8301 35.25L43.7101 63.5801L44.9001 62.4102L72.5801 35.25L60.0001 17.9399H43.9401ZM57.2101 21.3403L54.8801 31.6699L46.6602 21.3403H57.2101ZM43.5901 22.3403L52.5901 33.5703H34.8801L43.5901 22.3403ZM40.5901 21.3403L32.5901 31.6299L30.2802 21.3403H40.5901ZM27.6501 23.4702L29.9202 33.5601H20.3201L27.6501 23.4702ZM30.8401 36.5703L38.7802 53.9302L21.0001 36.5703H30.8401ZM43.7601 57.5703L34.1501 36.5703H53.3701L43.7601 57.5703ZM48.7601 53.9199L56.7001 36.5601H66.4501L48.7601 53.9199ZM57.6101 33.5503L59.8901 23.46L67.2201 33.5503H57.6101Z" fill="#1E257D"/>
<path d="M83.5101 17.4302C79.4001 17.4302 77.9802 16.4301 77.1802 15.6001C76.3802 14.7701 75.3501 13.38 75.3501 9.27002C75.3501 9.12002 75.3501 8.66992 74.8501 8.66992C74.7754 8.67047 74.7016 8.68713 74.6339 8.71875C74.5662 8.75037 74.5062 8.79657 74.4578 8.85352C74.4094 8.91046 74.3738 8.9769 74.3535 9.04883C74.3332 9.12075 74.3286 9.19618 74.3401 9.27002C74.3401 13.38 73.3401 14.8001 72.5101 15.6001C71.6801 16.4001 70.2802 17.4302 66.1802 17.4302C66.0202 17.4302 65.5801 17.4299 65.5801 17.9399C65.5801 18.4499 66.0202 18.4502 66.1802 18.4502C70.2802 18.4502 71.7101 19.4503 72.5101 20.2803C73.3101 21.1103 74.3401 22.5004 74.3401 26.6104C74.3401 26.7704 74.3401 27.21 74.8501 27.21C75.3601 27.21 75.3501 26.7704 75.3501 26.6104C75.3501 22.5004 76.3502 21.0803 77.1802 20.2803C78.0102 19.4803 79.4001 18.4502 83.5101 18.4502C83.6701 18.4502 84.1101 18.4499 84.1101 17.9399C84.1101 17.4299 83.6701 17.4302 83.5101 17.4302Z" fill="#1E257D"/>
<path d="M1.69983 13.8204C7.34983 13.8204 9.2999 15.2402 10.3999 16.3302C11.4999 17.4202 12.9199 19.3901 12.9199 25.0401C12.9041 25.1413 12.9102 25.2448 12.9381 25.3433C12.966 25.4419 13.0148 25.5335 13.0813 25.6114C13.1478 25.6893 13.2304 25.7515 13.3234 25.7945C13.4163 25.8375 13.5175 25.8602 13.6199 25.8604C14.2899 25.8604 14.3099 25.2501 14.3099 25.0401C14.3099 19.3901 15.7298 17.4302 16.8298 16.3302C17.9298 15.2302 19.8799 13.8204 25.5299 13.8204C25.6317 13.8377 25.7361 13.8325 25.8357 13.8053C25.9353 13.778 26.0279 13.7293 26.1068 13.6627C26.1857 13.596 26.2491 13.5127 26.2926 13.419C26.3361 13.3253 26.3586 13.2235 26.3586 13.1202C26.3586 13.0169 26.3361 12.915 26.2926 12.8214C26.2491 12.7277 26.1857 12.6444 26.1068 12.5777C26.0279 12.5111 25.9353 12.4624 25.8357 12.4351C25.7361 12.4079 25.6317 12.4027 25.5299 12.42C19.8799 12.42 17.9198 11.0102 16.8298 9.91023C15.7398 8.81023 14.3099 6.86004 14.3099 1.21004C14.3099 0.990038 14.3099 0.390214 13.6199 0.390214C13.5169 0.388688 13.4149 0.409801 13.321 0.452226C13.2272 0.49465 13.144 0.557508 13.0771 0.635819C13.0103 0.714131 12.9615 0.806037 12.9343 0.905351C12.9071 1.00466 12.9023 1.1086 12.9199 1.21004C12.9199 6.86004 11.4999 8.81023 10.3999 9.91023C9.2999 11.0102 7.34983 12.42 1.69983 12.42C1.598 12.4027 1.49368 12.4079 1.39404 12.4351C1.29441 12.4624 1.20195 12.5111 1.12305 12.5777C1.04414 12.6444 0.980633 12.7277 0.937134 12.8214C0.893635 12.915 0.871094 13.0169 0.871094 13.1202C0.871094 13.2235 0.893635 13.3253 0.937134 13.419C0.980633 13.5127 1.04414 13.596 1.12305 13.6627C1.20195 13.7293 1.29441 13.778 1.39404 13.8053C1.49368 13.8325 1.598 13.8377 1.69983 13.8204Z" fill="#1E257D"/>
</svg>
