<svg width="102" height="57" viewBox="0 0 102 57" fill="none" xmlns="http://www.w3.org/2000/svg">
<path d="M32.0001 44.5497C38.2311 40.9864 45.3375 39.2444 52.51 39.522C59.6826 39.7995 66.633 42.0855 72.5701 46.1196L101.22 29.5796C96.1386 20.7767 88.8293 13.4666 80.027 8.38416C71.2246 3.30168 61.2394 0.625977 51.0751 0.625977C40.9108 0.625977 30.9256 3.30168 22.1233 8.38416C13.3209 13.4666 6.01168 20.7767 0.930176 29.5796L29.5402 46.0996C30.3002 45.5596 31.1201 45.0297 32.0001 44.5497Z" fill="#1E257D"/>
<path d="M40.59 48.8899C40.13 49.1499 39.69 49.4399 39.25 49.7399L51.03 56.5399L62.79 49.7499C59.5402 47.5451 55.7372 46.2957 51.813 46.1437C47.8888 45.9917 44.0006 46.9431 40.59 48.8899Z" fill="#1E257D"/>
</svg>
